<svg width="392" height="70" viewBox="0 0 392 70" fill="none" xmlns="http://www.w3.org/2000/svg">
<path d="M14.0361 55H4.70508V27.6904H0.15918V18.3936H4.70508V16.6504C4.70508 14.3945 5.12663 12.2754 5.96973 10.293C6.83561 8.31055 8.00911 6.59017 9.49023 5.13184C10.9941 3.65072 12.7373 2.48861 14.7197 1.64551C16.7021 0.779622 18.8213 0.34668 21.0771 0.34668H28.084V9.64355H21.0771C20.0745 9.64355 19.1403 9.82585 18.2744 10.1904C17.4313 10.5322 16.6908 11.0221 16.0527 11.6602C15.4375 12.2754 14.9476 13.016 14.583 13.8818C14.2184 14.7249 14.0361 15.6478 14.0361 16.6504V18.3936H25.4863V27.6904H14.0361V55ZM39.3291 55H29.9297V3.83301H39.3291V55ZM81.8486 36.3721C81.8486 39.1064 81.3587 41.6585 80.3789 44.0283C79.3991 46.3753 78.0661 48.4147 76.3799 50.1465C74.6937 51.8555 72.7113 53.2113 70.4326 54.2139C68.1768 55.1937 65.75 55.6836 63.1523 55.6836C60.5775 55.6836 58.1507 55.1937 55.8721 54.2139C53.6162 53.2113 51.6338 51.8555 49.9248 50.1465C48.2386 48.4147 46.9056 46.3753 45.9258 44.0283C44.946 41.6585 44.4561 39.1064 44.4561 36.3721C44.4561 33.5921 44.946 31.0173 45.9258 28.6475C46.9056 26.2777 48.2386 24.2383 49.9248 22.5293C51.6338 20.7975 53.6162 19.4417 55.8721 18.4619C58.1507 17.4821 60.5775 16.9922 63.1523 16.9922C65.75 16.9922 68.1768 17.4593 70.4326 18.3936C72.7113 19.305 74.6937 20.6152 76.3799 22.3242C78.0661 24.0104 79.3991 26.0498 80.3789 28.4424C81.3587 30.8122 81.8486 33.4554 81.8486 36.3721ZM72.4492 36.3721C72.4492 34.8682 72.1986 33.5124 71.6973 32.3047C71.2188 31.0742 70.5579 30.026 69.7148 29.1602C68.8717 28.2715 67.8805 27.5993 66.7412 27.1436C65.6247 26.665 64.4284 26.4258 63.1523 26.4258C61.8763 26.4258 60.6686 26.665 59.5293 27.1436C58.4128 27.5993 57.4329 28.2715 56.5898 29.1602C55.7695 30.026 55.1201 31.0742 54.6416 32.3047C54.1631 33.5124 53.9238 34.8682 53.9238 36.3721C53.9238 37.7848 54.1631 39.0951 54.6416 40.3027C55.1201 41.5104 55.7695 42.5586 56.5898 43.4473C57.4329 44.3359 58.4128 45.0423 59.5293 45.5664C60.6686 46.0677 61.8763 46.3184 63.1523 46.3184C64.4284 46.3184 65.6247 46.0791 66.7412 45.6006C67.8805 45.1221 68.8717 44.4499 69.7148 43.584C70.5579 42.7181 71.2188 41.6699 71.6973 40.4395C72.1986 39.209 72.4492 37.8532 72.4492 36.3721ZM133.221 41.7725C133.221 43.6865 132.856 45.498 132.127 47.207C131.398 48.8932 130.395 50.363 129.119 51.6162C127.866 52.8695 126.385 53.8607 124.676 54.5898C122.99 55.319 121.178 55.6836 119.241 55.6836C117.509 55.6836 115.846 55.3874 114.251 54.7949C112.656 54.1797 111.209 53.291 109.91 52.1289C108.634 53.291 107.199 54.1797 105.604 54.7949C104.031 55.3874 102.368 55.6836 100.613 55.6836C98.6764 55.6836 96.8649 55.319 95.1787 54.5898C93.4925 53.8607 92.0114 52.8695 90.7354 51.6162C89.4821 50.363 88.4909 48.8932 87.7617 47.207C87.0326 45.498 86.668 43.6865 86.668 41.7725V18.4619H95.999V41.7725C95.999 42.4105 96.113 43.0143 96.3408 43.584C96.5915 44.1309 96.9219 44.6208 97.332 45.0537C97.765 45.4639 98.2549 45.7943 98.8018 46.0449C99.3714 46.2728 99.9753 46.3867 100.613 46.3867C101.251 46.3867 101.855 46.2728 102.425 46.0449C102.994 45.7943 103.496 45.4639 103.929 45.0537C104.362 44.6208 104.692 44.1309 104.92 43.584C105.171 43.0143 105.296 42.4105 105.296 41.7725V18.4619H114.593V41.7725C114.593 42.4105 114.718 43.0143 114.969 43.584C115.219 44.1309 115.55 44.6208 115.96 45.0537C116.393 45.4639 116.883 45.7943 117.43 46.0449C117.999 46.2728 118.603 46.3867 119.241 46.3867C119.879 46.3867 120.483 46.2728 121.053 46.0449C121.622 45.7943 122.112 45.4639 122.522 45.0537C122.955 44.6208 123.297 44.1309 123.548 43.584C123.799 43.0143 123.924 42.4105 123.924 41.7725V18.4619H133.221V41.7725ZM169.827 35.415V25.6055C169.827 24.2611 169.565 22.9964 169.041 21.8115C168.54 20.6038 167.845 19.5557 166.956 18.667C166.067 17.7783 165.019 17.0833 163.812 16.582C162.627 16.0579 161.362 15.7959 160.018 15.7959C158.673 15.7959 157.397 16.0579 156.189 16.582C155.005 17.0833 153.968 17.7783 153.079 18.667C152.19 19.5557 151.484 20.6038 150.96 21.8115C150.459 22.9964 150.208 24.2611 150.208 25.6055V35.415H169.827ZM179.637 55H169.827V45.1904H150.208V55H140.433V25.6055C140.433 22.8939 140.945 20.3532 141.971 17.9834C142.996 15.5908 144.386 13.5059 146.141 11.7285C147.918 9.95117 149.992 8.5498 152.361 7.52441C154.754 6.49902 157.306 5.98633 160.018 5.98633C162.729 5.98633 165.27 6.49902 167.64 7.52441C170.032 8.5498 172.117 9.95117 173.895 11.7285C175.672 13.5059 177.073 15.5908 178.099 17.9834C179.124 20.3532 179.637 22.8939 179.637 25.6055V55ZM196.487 55H187.156V18.3936H189.412L192.488 22.7344C193.992 21.3672 195.701 20.319 197.615 19.5898C199.529 18.8379 201.512 18.4619 203.562 18.4619H211.8V27.7588H203.562C202.583 27.7588 201.66 27.9411 200.794 28.3057C199.928 28.6702 199.176 29.1715 198.538 29.8096C197.9 30.4476 197.399 31.1995 197.034 32.0654C196.67 32.9313 196.487 33.8542 196.487 34.834V55ZM234.495 55C232.239 55 230.12 54.5785 228.138 53.7354C226.155 52.8695 224.412 51.696 222.908 50.2148C221.427 48.7109 220.254 46.9678 219.388 44.9854C218.545 43.0029 218.123 40.8838 218.123 38.6279V27.7588H213.577V18.4619H218.123V3.83301H227.42V18.4619H241.57V27.7588H227.42V38.6279C227.42 39.6077 227.602 40.5306 227.967 41.3965C228.331 42.2396 228.833 42.9801 229.471 43.6182C230.109 44.2562 230.861 44.7689 231.727 45.1562C232.592 45.5208 233.515 45.7031 234.495 45.7031H241.57V55H234.495ZM257.84 8.44727C257.84 9.31315 257.669 10.1221 257.327 10.874C257.008 11.626 256.564 12.2868 255.994 12.8564C255.424 13.4033 254.752 13.8477 253.978 14.1895C253.226 14.5085 252.417 14.668 251.551 14.668C250.685 14.668 249.865 14.5085 249.09 14.1895C248.338 13.8477 247.677 13.4033 247.107 12.8564C246.561 12.2868 246.116 11.626 245.774 10.874C245.455 10.1221 245.296 9.31315 245.296 8.44727C245.296 7.60417 245.455 6.80664 245.774 6.05469C246.116 5.27995 246.561 4.61914 247.107 4.07227C247.677 3.5026 248.338 3.05827 249.09 2.73926C249.865 2.39746 250.685 2.22656 251.551 2.22656C252.417 2.22656 253.226 2.39746 253.978 2.73926C254.752 3.05827 255.424 3.5026 255.994 4.07227C256.564 4.61914 257.008 5.27995 257.327 6.05469C257.669 6.80664 257.84 7.60417 257.84 8.44727ZM256.233 55H246.834V18.3936H256.233V55ZM283.475 55H262.146V45.7031H283.475C284.113 45.7031 284.66 45.4753 285.115 45.0195C285.571 44.5638 285.799 44.0169 285.799 43.3789C285.799 42.7181 285.571 42.2852 285.115 42.0801C284.66 41.875 284.113 41.7725 283.475 41.7725H273.768C272.15 41.7725 270.634 41.4648 269.222 40.8496C267.809 40.2344 266.578 39.4027 265.53 38.3545C264.482 37.2835 263.65 36.0417 263.035 34.6289C262.443 33.2161 262.146 31.7008 262.146 30.083C262.146 28.4652 262.443 26.9499 263.035 25.5371C263.65 24.1243 264.482 22.8939 265.53 21.8457C266.578 20.7975 267.809 19.9772 269.222 19.3848C270.634 18.7695 272.15 18.4619 273.768 18.4619H292.669V27.7588H273.768C273.13 27.7588 272.583 27.9867 272.127 28.4424C271.671 28.8981 271.443 29.445 271.443 30.083C271.443 30.7438 271.671 31.3135 272.127 31.792C272.583 32.2477 273.13 32.4756 273.768 32.4756H283.475C285.07 32.4756 286.574 32.749 287.986 33.2959C289.399 33.82 290.63 34.5605 291.678 35.5176C292.726 36.4746 293.558 37.6253 294.173 38.9697C294.788 40.3141 295.096 41.7839 295.096 43.3789C295.096 44.9967 294.788 46.512 294.173 47.9248C293.558 49.3148 292.726 50.5452 291.678 51.6162C290.63 52.6644 289.399 53.4961 287.986 54.1113C286.574 54.7038 285.07 55 283.475 55ZM318.44 55C316.185 55 314.065 54.5785 312.083 53.7354C310.101 52.8695 308.357 51.696 306.854 50.2148C305.372 48.7109 304.199 46.9678 303.333 44.9854C302.49 43.0029 302.068 40.8838 302.068 38.6279V27.7588H297.522V18.4619H302.068V3.83301H311.365V18.4619H325.516V27.7588H311.365V38.6279C311.365 39.6077 311.548 40.5306 311.912 41.3965C312.277 42.2396 312.778 42.9801 313.416 43.6182C314.054 44.2562 314.806 44.7689 315.672 45.1562C316.538 45.5208 317.461 45.7031 318.44 45.7031H325.516V55H318.44ZM340.11 55H330.779V18.3936H333.035L336.111 22.7344C337.615 21.3672 339.324 20.319 341.238 19.5898C343.152 18.8379 345.135 18.4619 347.186 18.4619H355.423V27.7588H347.186C346.206 27.7588 345.283 27.9411 344.417 28.3057C343.551 28.6702 342.799 29.1715 342.161 29.8096C341.523 30.4476 341.022 31.1995 340.657 32.0654C340.293 32.9313 340.11 33.8542 340.11 34.834V55ZM368.309 68.9453V59.5459L373.504 59.6143C374.415 59.6143 375.293 59.4661 376.136 59.1699C376.979 58.8737 377.754 58.4635 378.46 57.9395C379.189 57.4154 379.827 56.7887 380.374 56.0596C380.921 55.3532 381.365 54.5785 381.707 53.7354C380.682 54.1683 379.633 54.6012 378.562 55.0342C377.514 55.4671 376.455 55.6836 375.384 55.6836C373.128 55.6836 371.009 55.2848 369.026 54.4873C367.044 53.6898 365.301 52.5618 363.797 51.1035C362.316 49.6224 361.142 47.8337 360.276 45.7373C359.433 43.6182 359.012 41.2484 359.012 38.6279V18.3936H368.309V38.6279C368.309 39.9268 368.491 41.0661 368.855 42.0459C369.243 43.0029 369.756 43.8118 370.394 44.4727C371.032 45.1107 371.772 45.5892 372.615 45.9082C373.481 46.2272 374.404 46.3867 375.384 46.3867C376.341 46.3867 377.241 46.1702 378.084 45.7373C378.95 45.2816 379.702 44.6891 380.34 43.96C380.978 43.2308 381.479 42.4105 381.844 41.499C382.208 40.5648 382.391 39.6077 382.391 38.6279V18.3936H391.79V50.3857C391.767 52.9606 391.266 55.376 390.286 57.6318C389.306 59.8877 387.962 61.8587 386.253 63.5449C384.567 65.2311 382.596 66.5641 380.34 67.5439C378.084 68.5238 375.669 69.0137 373.094 69.0137L368.309 68.9453Z" fill="#FFD700"/>
<path d="M14.0361 55V59H18.0361V55H14.0361ZM4.70508 55H0.705078V59H4.70508V55ZM4.70508 27.6904H8.70508V23.6904H4.70508V27.6904ZM0.15918 27.6904H-3.84082V31.6904H0.15918V27.6904ZM0.15918 18.3936V14.3936H-3.84082V18.3936H0.15918ZM4.70508 18.3936V22.3936H8.70508V18.3936H4.70508ZM5.96973 10.293L2.30413 8.6919L2.29637 8.70967L2.28878 8.72751L5.96973 10.293ZM9.49023 5.13184L12.2967 7.9821L12.297 7.98177L9.49023 5.13184ZM14.7197 1.64551L16.2852 5.32645L16.303 5.31886L16.3208 5.3111L14.7197 1.64551ZM28.084 0.34668H32.084V-3.65332H28.084V0.34668ZM28.084 9.64355V13.6436H32.084V9.64355H28.084ZM18.2744 10.1904L19.7772 13.8974L19.802 13.8873L19.8266 13.877L18.2744 10.1904ZM16.0527 11.6602L18.8812 14.4886L16.0527 11.6602ZM14.583 13.8818L18.2544 15.4695L18.2621 15.4518L18.2695 15.4341L14.583 13.8818ZM14.0361 18.3936H10.0361V22.3936H14.0361V18.3936ZM25.4863 18.3936H29.4863V14.3936H25.4863V18.3936ZM25.4863 27.6904V31.6904H29.4863V27.6904H25.4863ZM14.0361 27.6904V23.6904H10.0361V27.6904H14.0361ZM14.0361 51H4.70508V59H14.0361V51ZM8.70508 55V27.6904H0.705078V55H8.70508ZM4.70508 23.6904H0.15918V31.6904H4.70508V23.6904ZM4.15918 27.6904V18.3936H-3.84082V27.6904H4.15918ZM0.15918 22.3936H4.70508V14.3936H0.15918V22.3936ZM8.70508 18.3936V16.6504H0.705078V18.3936H8.70508ZM8.70508 16.6504C8.70508 14.9066 9.028 13.3225 9.65067 11.8584L2.28878 8.72751C1.22526 11.2282 0.705078 13.8824 0.705078 16.6504H8.70508ZM9.63532 11.894C10.3055 10.3596 11.1937 9.06807 12.2967 7.9821L6.68382 2.28157C4.82452 4.11226 3.36569 6.26149 2.30413 8.6919L9.63532 11.894ZM12.297 7.98177C13.4355 6.86048 14.7553 5.97709 16.2852 5.32645L13.1543 -2.03543C10.7193 -0.999872 8.55275 0.440951 6.68348 2.2819L12.297 7.98177ZM16.3208 5.3111C17.7766 4.67522 19.3482 4.34668 21.0771 4.34668V-3.65332C18.2944 -3.65332 15.6277 -3.11597 13.1187 -2.02009L16.3208 5.3111ZM21.0771 4.34668H28.084V-3.65332H21.0771V4.34668ZM24.084 0.34668V9.64355H32.084V0.34668H24.084ZM28.084 5.64355H21.0771V13.6436H28.084V5.64355ZM21.0771 5.64355C19.5777 5.64355 18.1118 5.91879 16.7222 6.50389L19.8266 13.877C20.1688 13.7329 20.5714 13.6436 21.0771 13.6436V5.64355ZM16.7716 6.48347C15.4365 7.02473 14.2441 7.81189 13.2243 8.83173L18.8812 14.4886C19.1374 14.2324 19.4261 14.0397 19.7772 13.8974L16.7716 6.48347ZM13.2243 8.83173C12.2149 9.84119 11.4457 11.0252 10.8965 12.3296L18.2695 15.4341C18.4495 15.0067 18.6601 14.7096 18.8812 14.4886L13.2243 8.83173ZM10.9116 12.2942C10.3111 13.6828 10.0361 15.1521 10.0361 16.6504H18.0361C18.0361 16.1435 18.1257 15.7671 18.2544 15.4695L10.9116 12.2942ZM10.0361 16.6504V18.3936H18.0361V16.6504H10.0361ZM14.0361 22.3936H25.4863V14.3936H14.0361V22.3936ZM21.4863 18.3936V27.6904H29.4863V18.3936H21.4863ZM25.4863 23.6904H14.0361V31.6904H25.4863V23.6904ZM10.0361 27.6904V55H18.0361V27.6904H10.0361ZM39.3291 55V59H43.3291V55H39.3291ZM29.9297 55H25.9297V59H29.9297V55ZM29.9297 3.83301V-0.166992H25.9297V3.83301H29.9297ZM39.3291 3.83301H43.3291V-0.166992H39.3291V3.83301ZM39.3291 51H29.9297V59H39.3291V51ZM33.9297 55V3.83301H25.9297V55H33.9297ZM29.9297 7.83301H39.3291V-0.166992H29.9297V7.83301ZM35.3291 3.83301V55H43.3291V3.83301H35.3291ZM80.3789 44.0283L84.0702 45.5693L84.0754 45.5567L80.3789 44.0283ZM76.3799 50.1465L79.2272 52.9559L79.2365 52.9464L79.2458 52.937L76.3799 50.1465ZM70.4326 54.2139L72.0262 57.8827L72.0349 57.879L72.0436 57.8751L70.4326 54.2139ZM55.8721 54.2139L54.2475 57.8691L54.2697 57.879L54.292 57.8885L55.8721 54.2139ZM49.9248 50.1465L47.0589 52.937L47.0775 52.9561L47.0964 52.9749L49.9248 50.1465ZM45.9258 44.0283L42.2293 45.5567L42.2345 45.5693L45.9258 44.0283ZM45.9258 28.6475L42.2293 27.1191L45.9258 28.6475ZM49.9248 22.5293L47.0777 19.7197L47.0775 19.7199L49.9248 22.5293ZM55.8721 18.4619L54.292 14.7872L54.2852 14.7901L54.2785 14.793L55.8721 18.4619ZM70.4326 18.3936L68.9021 22.0892L68.9245 22.0985L68.9471 22.1075L70.4326 18.3936ZM76.3799 22.3242L73.5325 25.1336L73.542 25.1432L73.5515 25.1526L76.3799 22.3242ZM80.3789 28.4424L76.6773 29.9583L76.6824 29.9707L80.3789 28.4424ZM71.6973 32.3047L67.9692 33.7545L67.9856 33.7965L68.0029 33.8382L71.6973 32.3047ZM69.7148 29.1602L66.813 31.9132L66.8309 31.932L66.849 31.9506L69.7148 29.1602ZM66.7412 27.1436L65.1655 30.8201L65.2104 30.8393L65.2556 30.8575L66.7412 27.1436ZM59.5293 27.1436L61.0409 30.8469L61.0596 30.8393L61.0782 30.8315L59.5293 27.1436ZM56.5898 29.1602L53.688 26.4071L53.686 26.4092L56.5898 29.1602ZM54.6416 32.3047L58.3603 33.7781L58.365 33.7663L58.3696 33.7545L54.6416 32.3047ZM56.5898 43.4473L53.6506 46.1604L53.6692 46.1805L53.688 46.2003L56.5898 43.4473ZM59.5293 45.5664L57.8297 49.1874L57.8738 49.2081L57.9183 49.2277L59.5293 45.5664ZM66.7412 45.6006L65.1923 41.9127L65.1789 41.9183L65.1655 41.924L66.7412 45.6006ZM71.6973 40.4395L67.9929 38.9303L67.9808 38.9599L67.9692 38.9897L71.6973 40.4395ZM77.8486 36.3721C77.8486 38.6172 77.4488 40.6463 76.6824 42.5L84.0754 45.5567C85.2686 42.6708 85.8486 39.5957 85.8486 36.3721H77.8486ZM76.6877 42.4873C75.8916 44.3942 74.8307 46.0037 73.514 47.356L79.2458 52.937C81.3014 50.8257 82.9066 48.3565 84.0702 45.5693L76.6877 42.4873ZM73.5325 47.3371C72.2141 48.6734 70.6555 49.7457 68.8217 50.5526L72.0436 57.8751C74.7671 56.6768 77.1733 55.0376 79.2272 52.9559L73.5325 47.3371ZM68.8391 50.545C67.1141 51.2942 65.2331 51.6836 63.1523 51.6836V59.6836C66.2669 59.6836 69.2394 59.0931 72.0262 57.8827L68.8391 50.545ZM63.1523 51.6836C61.0997 51.6836 59.2126 51.2962 57.4522 50.5392L54.292 57.8885C57.0888 59.0912 60.0553 59.6836 63.1523 59.6836V51.6836ZM57.4966 50.5586C55.6796 49.7511 54.1076 48.6724 52.7532 47.3181L47.0964 52.9749C49.16 55.0386 51.5528 56.6715 54.2475 57.8691L57.4966 50.5586ZM52.7907 47.356C51.4739 46.0037 50.4131 44.3942 49.617 42.4873L42.2345 45.5693C43.3981 48.3565 45.0033 50.8257 47.0589 52.937L52.7907 47.356ZM49.6223 42.5C48.8559 40.6463 48.4561 38.6172 48.4561 36.3721H40.4561C40.4561 39.5957 41.0361 42.6708 42.2293 45.5567L49.6223 42.5ZM48.4561 36.3721C48.4561 34.0721 48.8591 32.0215 49.6223 30.1758L42.2293 27.1191C41.0328 30.013 40.4561 33.1121 40.4561 36.3721H48.4561ZM49.6223 30.1758C50.4181 28.251 51.4734 26.655 52.7722 25.3387L47.0775 19.7199C45.0039 21.8215 43.3931 24.3043 42.2293 27.1191L49.6223 30.1758ZM52.7719 25.3389C54.1178 23.9751 55.6735 22.9092 57.4656 22.1308L54.2785 14.793C51.559 15.9743 49.1498 17.62 47.0777 19.7197L52.7719 25.3389ZM57.4522 22.1366C59.2126 21.3796 61.0997 20.9922 63.1523 20.9922V12.9922C60.0553 12.9922 57.0888 13.5846 54.292 14.7872L57.4522 22.1366ZM63.1523 20.9922C65.2588 20.9922 67.1619 21.3685 68.9021 22.0892L71.9631 14.6979C69.1916 13.5501 66.2412 12.9922 63.1523 12.9922V20.9922ZM68.9471 22.1075C70.726 22.819 72.2419 23.8255 73.5325 25.1336L79.2272 19.5148C77.1455 17.405 74.6965 15.791 71.9182 14.6796L68.9471 22.1075ZM73.5515 25.1526C74.8318 26.433 75.8815 28.0151 76.6773 29.9583L84.0805 26.9265C82.9167 24.0845 81.3004 21.5878 79.2083 19.4958L73.5515 25.1526ZM76.6824 29.9707C77.4362 31.7938 77.8486 33.9082 77.8486 36.3721H85.8486C85.8486 33.0026 85.2813 29.8305 84.0754 26.914L76.6824 29.9707ZM76.4492 36.3721C76.4492 34.4202 76.1227 32.5324 75.3916 30.7712L68.0029 33.8382C68.2744 34.4923 68.4492 35.3161 68.4492 36.3721H76.4492ZM75.4253 30.8549C74.7703 29.1708 73.8316 27.6543 72.5807 26.3697L66.849 31.9506C67.2843 32.3977 67.6672 32.9777 67.9692 33.7545L75.4253 30.8549ZM72.6167 26.4071C71.3756 25.099 69.901 24.0994 68.2268 23.4296L65.2556 30.8575C65.86 31.0992 66.3678 31.444 66.813 31.9132L72.6167 26.4071ZM68.3169 23.467C66.6775 22.7644 64.9423 22.4258 63.1523 22.4258V30.4258C63.9145 30.4258 64.5719 30.5657 65.1655 30.8201L68.3169 23.467ZM63.1523 22.4258C61.3621 22.4258 59.6262 22.7644 57.9804 23.4556L61.0782 30.8315C61.711 30.5657 62.3905 30.4258 63.1523 30.4258V22.4258ZM58.0177 23.4402C56.3671 24.1139 54.9155 25.1133 53.688 26.4071L59.4917 31.9132C59.9504 31.4297 60.4584 31.0847 61.0409 30.8469L58.0177 23.4402ZM53.686 26.4092C52.473 27.6896 51.5598 29.1931 50.9136 30.8549L58.3696 33.7545C58.6804 32.9553 59.066 32.3625 59.4937 31.9111L53.686 26.4092ZM50.9229 30.8312C50.2316 32.5758 49.9238 34.4422 49.9238 36.3721H57.9238C57.9238 35.2941 58.0945 34.449 58.3603 33.7781L50.9229 30.8312ZM49.9238 36.3721C49.9238 38.2449 50.2428 40.0599 50.9229 41.7762L58.3603 38.8293C58.0833 38.1302 57.9238 37.3247 57.9238 36.3721H49.9238ZM50.9229 41.7762C51.5692 43.4074 52.4724 44.8839 53.6506 46.1604L59.5291 40.7341C59.0667 40.2333 58.671 39.6134 58.3603 38.8293L50.9229 41.7762ZM53.688 46.2003C54.8767 47.4532 56.265 48.4529 57.8297 49.1874L61.2289 41.9455C60.5605 41.6317 59.9892 41.2186 59.4917 40.6942L53.688 46.2003ZM57.9183 49.2277C59.5783 49.958 61.336 50.3184 63.1523 50.3184V42.3184C62.4166 42.3184 61.7589 42.1774 61.1403 41.9051L57.9183 49.2277ZM63.1523 50.3184C64.9423 50.3184 66.6775 49.9798 68.3169 49.2772L65.1655 41.924C64.5719 42.1784 63.9145 42.3184 63.1523 42.3184V50.3184ZM68.2901 49.2885C69.9128 48.607 71.3547 47.6336 72.5807 46.3745L66.849 40.7935C66.3887 41.2662 65.8483 41.6371 65.1923 41.9127L68.2901 49.2885ZM72.5807 46.3745C73.8316 45.0898 74.7703 43.5734 75.4253 41.8892L67.9692 38.9897C67.6672 39.7665 67.2843 40.3464 66.849 40.7935L72.5807 46.3745ZM75.4016 41.9486C76.1194 40.1869 76.4492 38.3113 76.4492 36.3721H68.4492C68.4492 37.3951 68.2778 38.231 67.9929 38.9303L75.4016 41.9486ZM132.127 47.207L135.798 48.7947L135.802 48.7857L135.806 48.7768L132.127 47.207ZM129.119 51.6162L126.316 48.7624L126.303 48.775L126.291 48.7878L129.119 51.6162ZM124.676 54.5898L123.106 50.9107L123.097 50.9146L123.088 50.9184L124.676 54.5898ZM114.251 54.7949L112.811 58.5269L112.835 58.5359L112.858 58.5446L114.251 54.7949ZM109.91 52.1289L112.577 49.1479L109.886 46.7403L107.217 49.1715L109.91 52.1289ZM105.604 54.7949L107.014 58.538L107.028 58.5325L107.043 58.5269L105.604 54.7949ZM90.7354 51.6162L87.9069 54.4446L87.9197 54.4574L87.9325 54.47L90.7354 51.6162ZM87.7617 47.207L84.0826 48.7768L84.0864 48.7857L84.0903 48.7947L87.7617 47.207ZM86.668 18.4619V14.4619H82.668V18.4619H86.668ZM95.999 18.4619H99.999V14.4619H95.999V18.4619ZM96.3408 43.584L92.6269 45.0695L92.6635 45.161L92.7046 45.2506L96.3408 43.584ZM97.332 45.0537L94.4282 47.8047L94.5026 47.8832L94.5811 47.9575L97.332 45.0537ZM98.8018 46.0449L97.1351 49.6812L97.2247 49.7222L97.3162 49.7588L98.8018 46.0449ZM102.425 46.0449L103.91 49.7588L103.974 49.7336L104.036 49.7062L102.425 46.0449ZM103.929 45.0537L106.68 47.9575L106.719 47.9204L106.757 47.8821L103.929 45.0537ZM104.92 43.584L101.259 41.973L101.243 42.0091L101.228 42.0455L104.92 43.584ZM105.296 18.4619V14.4619H101.296V18.4619H105.296ZM114.593 18.4619H118.593V14.4619H114.593V18.4619ZM114.969 43.584L111.307 45.1949L111.32 45.2229L111.332 45.2506L114.969 43.584ZM115.96 45.0537L113.056 47.8047L113.131 47.8832L113.209 47.9575L115.96 45.0537ZM117.43 46.0449L115.763 49.6812L115.853 49.7222L115.944 49.7588L117.43 46.0449ZM121.053 46.0449L122.538 49.7588L122.601 49.7336L122.664 49.7062L121.053 46.0449ZM122.522 45.0537L119.694 42.2253L122.522 45.0537ZM123.548 43.584L127.184 45.2506L127.197 45.2229L127.209 45.1949L123.548 43.584ZM123.924 18.4619V14.4619H119.924V18.4619H123.924ZM133.221 18.4619H137.221V14.4619H133.221V18.4619ZM129.221 41.7725C129.221 43.1636 128.959 44.4396 128.448 45.6373L135.806 48.7768C136.753 46.5565 137.221 44.2094 137.221 41.7725H129.221ZM128.456 45.6194C127.926 46.8446 127.214 47.8811 126.316 48.7624L131.922 54.47C133.577 52.8448 134.87 50.9419 135.798 48.7947L128.456 45.6194ZM126.291 48.7878C125.416 49.6624 124.368 50.3723 123.106 50.9107L126.246 58.269C128.401 57.3491 130.316 56.0766 131.948 54.4446L126.291 48.7878ZM123.088 50.9184C121.93 51.4192 120.662 51.6836 119.241 51.6836V59.6836C121.694 59.6836 124.049 59.2189 126.263 58.2613L123.088 50.9184ZM119.241 51.6836C117.976 51.6836 116.785 51.4692 115.644 51.0452L112.858 58.5446C114.907 59.3056 117.043 59.6836 119.241 59.6836V51.6836ZM115.69 51.0629C114.556 50.6252 113.523 49.9939 112.577 49.1479L107.243 55.1099C108.895 56.5881 110.756 57.7342 112.811 58.5269L115.69 51.0629ZM107.217 49.1715C106.304 50.0033 105.292 50.6277 104.164 51.0629L107.043 58.5269C109.105 57.7316 110.965 56.5788 112.603 55.0863L107.217 49.1715ZM104.193 51.0518C103.091 51.4669 101.908 51.6836 100.613 51.6836V59.6836C102.828 59.6836 104.971 59.3078 107.014 58.538L104.193 51.0518ZM100.613 51.6836C99.1923 51.6836 97.9243 51.4192 96.7664 50.9184L93.5911 58.2613C95.8055 59.2189 98.1605 59.6836 100.613 59.6836V51.6836ZM96.7664 50.9184C95.5196 50.3793 94.4534 49.6612 93.5382 48.7624L87.9325 54.47C89.5694 56.0777 91.4654 57.3421 93.5911 58.2613L96.7664 50.9184ZM93.5638 48.7878C92.6803 47.9043 91.9695 46.8597 91.4331 45.6194L84.0903 48.7947C85.0123 50.9267 86.2839 52.8216 87.9069 54.4446L93.5638 48.7878ZM91.4408 45.6373C90.9298 44.4396 90.668 43.1636 90.668 41.7725H82.668C82.668 44.2094 83.1353 46.5565 84.0826 48.7768L91.4408 45.6373ZM90.668 41.7725V18.4619H82.668V41.7725H90.668ZM86.668 22.4619H95.999V14.4619H86.668V22.4619ZM91.999 18.4619V41.7725H99.999V18.4619H91.999ZM91.999 41.7725C91.999 42.8987 92.2025 44.0086 92.6269 45.0695L100.055 42.0984C100.023 42.02 99.999 41.9223 99.999 41.7725H91.999ZM92.7046 45.2506C93.1366 46.1931 93.7134 47.0501 94.4282 47.8047L100.236 42.3027C100.13 42.1914 100.046 42.0686 99.9771 41.9174L92.7046 45.2506ZM94.5811 47.9575C95.3356 48.6724 96.1926 49.2492 97.1351 49.6812L100.468 42.4087C100.317 42.3394 100.194 42.2554 100.083 42.1499L94.5811 47.9575ZM97.3162 49.7588C98.3771 50.1832 99.487 50.3867 100.613 50.3867V42.3867C100.463 42.3867 100.366 42.3624 100.287 42.331L97.3162 49.7588ZM100.613 50.3867C101.74 50.3867 102.849 50.1832 103.91 49.7588L100.939 42.331C100.861 42.3624 100.763 42.3867 100.613 42.3867V50.3867ZM104.036 49.7062C105.008 49.2786 105.899 48.6974 106.68 47.9575L101.178 42.1499C101.093 42.2303 100.981 42.31 100.814 42.3837L104.036 49.7062ZM106.757 47.8821C107.547 47.0924 108.177 46.1678 108.612 45.1224L101.228 42.0455C101.207 42.0939 101.176 42.1492 101.1 42.2253L106.757 47.8821ZM108.581 45.1949C109.061 44.1046 109.296 42.9508 109.296 41.7725H101.296C101.296 41.8701 101.28 41.924 101.259 41.973L108.581 45.1949ZM109.296 41.7725V18.4619H101.296V41.7725H109.296ZM105.296 22.4619H114.593V14.4619H105.296V22.4619ZM110.593 18.4619V41.7725H118.593V18.4619H110.593ZM110.593 41.7725C110.593 42.9508 110.828 44.1046 111.307 45.1949L118.63 41.973C118.608 41.924 118.593 41.8701 118.593 41.7725H110.593ZM111.332 45.2506C111.764 46.1931 112.341 47.0501 113.056 47.8047L118.864 42.3027C118.758 42.1914 118.674 42.0686 118.605 41.9174L111.332 45.2506ZM113.209 47.9575C113.964 48.6724 114.821 49.2492 115.763 49.6812L119.096 42.4087C118.945 42.3394 118.822 42.2554 118.711 42.1499L113.209 47.9575ZM115.944 49.7588C117.005 50.1832 118.115 50.3867 119.241 50.3867V42.3867C119.091 42.3867 118.994 42.3624 118.915 42.331L115.944 49.7588ZM119.241 50.3867C120.367 50.3867 121.477 50.1832 122.538 49.7588L119.567 42.331C119.489 42.3624 119.391 42.3867 119.241 42.3867V50.3867ZM122.664 49.7062C123.654 49.2705 124.565 48.6679 125.351 47.8821L119.694 42.2253C119.659 42.2599 119.591 42.3181 119.442 42.3837L122.664 49.7062ZM125.351 47.8821C126.114 47.1191 126.732 46.2374 127.184 45.2506L119.912 41.9174C119.863 42.0243 119.797 42.1224 119.694 42.2253L125.351 47.8821ZM127.209 45.1949C127.689 44.1046 127.924 42.9508 127.924 41.7725H119.924C119.924 41.8701 119.908 41.924 119.887 41.973L127.209 45.1949ZM127.924 41.7725V18.4619H119.924V41.7725H127.924ZM123.924 22.4619H133.221V14.4619H123.924V22.4619ZM129.221 18.4619V41.7725H137.221V18.4619H129.221ZM169.827 35.415V39.415H173.827V35.415H169.827ZM169.041 21.8115L165.347 23.345L165.364 23.3875L165.383 23.4295L169.041 21.8115ZM163.812 16.582L162.193 20.2402L162.236 20.2588L162.278 20.2764L163.812 16.582ZM156.189 16.582L157.748 20.2659L157.765 20.2587L157.782 20.2514L156.189 16.582ZM150.96 21.8115L147.291 20.2192L147.283 20.236L147.276 20.253L150.96 21.8115ZM150.208 35.415H146.208V39.415H150.208V35.415ZM179.637 55V59H183.637V55H179.637ZM169.827 55H165.827V59H169.827V55ZM169.827 45.1904H173.827V41.1904H169.827V45.1904ZM150.208 45.1904V41.1904H146.208V45.1904H150.208ZM150.208 55V59H154.208V55H150.208ZM140.433 55H136.433V59H140.433V55ZM141.971 17.9834L145.642 19.5719L145.647 19.5591L141.971 17.9834ZM146.141 11.7285L143.312 8.90009L143.303 8.90921L143.294 8.91839L146.141 11.7285ZM152.361 7.52441L150.786 3.84781L150.773 3.85333L152.361 7.52441ZM167.64 7.52441L166.051 11.1955L166.064 11.201L167.64 7.52441ZM178.099 17.9834L174.422 19.5591L174.428 19.5718L178.099 17.9834ZM173.827 35.415V25.6055H165.827V35.415H173.827ZM173.827 25.6055C173.827 23.7253 173.457 21.9073 172.699 20.1935L165.383 23.4295C165.673 24.0855 165.827 24.7969 165.827 25.6055H173.827ZM172.735 20.278C172.041 18.6061 171.059 17.1129 169.784 15.8386L164.128 21.4954C164.631 21.9984 165.038 22.6016 165.347 23.345L172.735 20.278ZM169.784 15.8386C168.51 14.5642 167.017 13.5817 165.345 12.8877L162.278 20.2764C163.021 20.585 163.625 20.9924 164.128 21.4954L169.784 15.8386ZM165.43 12.9239C163.716 12.1659 161.898 11.7959 160.018 11.7959V19.7959C160.826 19.7959 161.538 19.95 162.193 20.2402L165.43 12.9239ZM160.018 11.7959C158.137 11.7959 156.318 12.1658 154.597 12.9127L157.782 20.2514C158.476 19.9501 159.209 19.7959 160.018 19.7959V11.7959ZM154.631 12.8982C152.983 13.5953 151.512 14.5769 150.251 15.8386L155.908 21.4954C156.423 20.9797 157.026 20.5714 157.748 20.2659L154.631 12.8982ZM150.251 15.8386C148.99 17.0995 148.005 18.5725 147.291 20.2192L154.629 23.4039C154.963 22.6352 155.391 22.0118 155.908 21.4954L150.251 15.8386ZM147.276 20.253C146.557 21.9531 146.208 23.7502 146.208 25.6055H154.208C154.208 24.772 154.361 24.0398 154.644 23.3701L147.276 20.253ZM146.208 25.6055V35.415H154.208V25.6055H146.208ZM150.208 39.415H169.827V31.415H150.208V39.415ZM179.637 51H169.827V59H179.637V51ZM173.827 55V45.1904H165.827V55H173.827ZM169.827 41.1904H150.208V49.1904H169.827V41.1904ZM146.208 45.1904V55H154.208V45.1904H146.208ZM150.208 51H140.433V59H150.208V51ZM144.433 55V25.6055H136.433V55H144.433ZM144.433 25.6055C144.433 23.4124 144.844 21.4152 145.642 19.5718L138.3 16.395C137.046 19.2912 136.433 22.3754 136.433 25.6055H144.433ZM145.647 19.5591C146.484 17.6065 147.599 15.945 148.987 14.5386L143.294 8.91839C141.173 11.0667 139.508 13.5751 138.294 16.4077L145.647 19.5591ZM148.969 14.5569C150.38 13.1459 152.03 12.0262 153.95 11.1955L150.773 3.85333C147.953 5.07338 145.456 6.75643 143.312 8.90009L148.969 14.5569ZM153.937 11.201C155.811 10.3979 157.825 9.98633 160.018 9.98633V1.98633C156.787 1.98633 153.697 2.60016 150.786 3.84783L153.937 11.201ZM160.018 9.98633C162.211 9.98633 164.208 10.3979 166.051 11.1955L169.228 3.85333C166.332 2.60015 163.248 1.98633 160.018 1.98633V9.98633ZM166.064 11.201C168.006 12.0332 169.661 13.1523 171.066 14.5569L176.723 8.90009C174.573 6.75009 172.059 5.06641 169.215 3.84783L166.064 11.201ZM171.066 14.5569C172.471 15.9616 173.59 17.6173 174.422 19.5591L181.775 16.4077C180.557 13.5644 178.873 11.0501 176.723 8.90009L171.066 14.5569ZM174.428 19.5718C175.225 21.4152 175.637 23.4124 175.637 25.6055H183.637C183.637 22.3754 183.023 19.2912 181.77 16.395L174.428 19.5718ZM175.637 25.6055V55H183.637V25.6055H175.637ZM196.487 55V59H200.487V55H196.487ZM187.156 55H183.156V59H187.156V55ZM187.156 18.3936V14.3936H183.156V18.3936H187.156ZM189.412 18.3936L192.676 16.0808L191.48 14.3936H189.412V18.3936ZM192.488 22.7344L189.225 25.0472L191.837 28.7327L195.179 25.6941L192.488 22.7344ZM197.615 19.5898L199.039 23.3278L199.059 23.3204L199.078 23.3128L197.615 19.5898ZM211.8 18.4619H215.8V14.4619H211.8V18.4619ZM211.8 27.7588V31.7588H215.8V27.7588H211.8ZM200.794 28.3057L199.242 24.6191L200.794 28.3057ZM196.487 51H187.156V59H196.487V51ZM191.156 55V18.3936H183.156V55H191.156ZM187.156 22.3936H189.412V14.3936H187.156V22.3936ZM186.149 20.7063L189.225 25.0472L195.752 20.4216L192.676 16.0808L186.149 20.7063ZM195.179 25.6941C196.31 24.6659 197.589 23.8804 199.039 23.3278L196.191 15.8519C193.814 16.7576 191.674 18.0685 189.798 19.7746L195.179 25.6941ZM199.078 23.3128C200.527 22.7434 202.014 22.4619 203.562 22.4619V14.4619C201.01 14.4619 198.531 14.9324 196.153 15.8668L199.078 23.3128ZM203.562 22.4619H211.8V14.4619H203.562V22.4619ZM207.8 18.4619V27.7588H215.8V18.4619H207.8ZM211.8 23.7588H203.562V31.7588H211.8V23.7588ZM203.562 23.7588C202.073 23.7588 200.62 24.0388 199.242 24.6191L202.346 31.9922C202.7 31.8434 203.092 31.7588 203.562 31.7588V23.7588ZM199.242 24.6191C197.919 25.1761 196.729 25.9622 195.71 26.9811L201.367 32.638C201.624 32.3809 201.937 32.1644 202.346 31.9922L199.242 24.6191ZM195.71 26.9811C194.691 28.0001 193.905 29.1904 193.348 30.5132L200.721 33.6177C200.893 33.2086 201.109 32.8951 201.367 32.638L195.71 26.9811ZM193.348 30.5132C192.767 31.8915 192.487 33.3444 192.487 34.834H200.487C200.487 34.364 200.572 33.9711 200.721 33.6177L193.348 30.5132ZM192.487 34.834V55H200.487V34.834H192.487ZM228.138 53.7354L226.537 57.4009L226.554 57.4087L226.572 57.4163L228.138 53.7354ZM222.908 50.2148L220.058 53.0216L220.08 53.0434L220.101 53.0648L222.908 50.2148ZM219.388 44.9854L215.707 46.5508L215.714 46.5687L215.722 46.5864L219.388 44.9854ZM218.123 27.7588H222.123V23.7588H218.123V27.7588ZM213.577 27.7588H209.577V31.7588H213.577V27.7588ZM213.577 18.4619V14.4619H209.577V18.4619H213.577ZM218.123 18.4619V22.4619H222.123V18.4619H218.123ZM218.123 3.83301V-0.166992H214.123V3.83301H218.123ZM227.42 3.83301H231.42V-0.166992H227.42V3.83301ZM227.42 18.4619H223.42V22.4619H227.42V18.4619ZM241.57 18.4619H245.57V14.4619H241.57V18.4619ZM241.57 27.7588V31.7588H245.57V27.7588H241.57ZM227.42 27.7588V23.7588H223.42V27.7588H227.42ZM227.967 41.3965L224.28 42.9487L224.288 42.9665L224.295 42.9841L227.967 41.3965ZM229.471 43.6182L232.299 40.7897L229.471 43.6182ZM231.727 45.1562L230.093 48.8075L230.134 48.8256L230.174 48.8428L231.727 45.1562ZM241.57 45.7031H245.57V41.7031H241.57V45.7031ZM241.57 55V59H245.57V55H241.57ZM234.495 51C232.751 51 231.167 50.6771 229.703 50.0544L226.572 57.4163C229.073 58.4798 231.727 59 234.495 59V51ZM229.739 50.0698C228.193 49.3948 226.862 48.4941 225.715 47.3649L220.101 53.0648C221.963 54.8978 224.117 56.3442 226.537 57.4009L229.739 50.0698ZM225.758 47.4081C224.629 46.2615 223.728 44.9297 223.053 43.3843L215.722 46.5864C216.779 49.0059 218.225 51.1603 220.058 53.0216L225.758 47.4081ZM223.069 43.4199C222.446 41.9558 222.123 40.3717 222.123 38.6279H214.123C214.123 41.3959 214.643 44.0501 215.707 46.5508L223.069 43.4199ZM222.123 38.6279V27.7588H214.123V38.6279H222.123ZM218.123 23.7588H213.577V31.7588H218.123V23.7588ZM217.577 27.7588V18.4619H209.577V27.7588H217.577ZM213.577 22.4619H218.123V14.4619H213.577V22.4619ZM222.123 18.4619V3.83301H214.123V18.4619H222.123ZM218.123 7.83301H227.42V-0.166992H218.123V7.83301ZM223.42 3.83301V18.4619H231.42V3.83301H223.42ZM227.42 22.4619H241.57V14.4619H227.42V22.4619ZM237.57 18.4619V27.7588H245.57V18.4619H237.57ZM241.57 23.7588H227.42V31.7588H241.57V23.7588ZM223.42 27.7588V38.6279H231.42V27.7588H223.42ZM223.42 38.6279C223.42 40.1176 223.7 41.5704 224.28 42.9487L231.653 39.8443C231.504 39.4908 231.42 39.0979 231.42 38.6279H223.42ZM224.295 42.9841C224.857 44.2818 225.641 45.4453 226.642 46.4466L232.299 40.7897C232.024 40.515 231.806 40.1974 231.638 39.8088L224.295 42.9841ZM226.642 46.4466C227.643 47.4469 228.805 48.2313 230.093 48.8075L233.36 41.505C232.916 41.3064 232.575 41.0655 232.299 40.7897L226.642 46.4466ZM230.174 48.8428C231.553 49.4231 233.005 49.7031 234.495 49.7031V41.7031C234.025 41.7031 233.632 41.6185 233.279 41.4697L230.174 48.8428ZM234.495 49.7031H241.57V41.7031H234.495V49.7031ZM237.57 45.7031V55H245.57V45.7031H237.57ZM241.57 51H234.495V59H241.57V51ZM257.327 10.874L253.686 9.21881L253.665 9.26506L253.645 9.31182L257.327 10.874ZM255.994 12.8564L258.764 15.742L258.794 15.7137L258.823 15.6849L255.994 12.8564ZM253.978 14.1895L255.54 17.8718L255.566 17.8606L255.592 17.8491L253.978 14.1895ZM249.09 14.1895L247.435 17.8309L247.5 17.8607L247.567 17.8882L249.09 14.1895ZM247.107 12.8564L244.222 15.6266L244.278 15.6855L244.337 15.742L247.107 12.8564ZM245.774 10.874L242.092 12.4362L242.112 12.483L242.133 12.5292L245.774 10.874ZM245.774 6.05469L242.115 4.44013L242.103 4.46623L242.092 4.49249L245.774 6.05469ZM247.107 4.07227L249.936 6.90069L247.107 4.07227ZM249.09 2.73926L250.652 6.42158L250.678 6.41044L250.704 6.39893L249.09 2.73926ZM253.978 2.73926L252.322 6.38072L252.388 6.41054L252.455 6.43797L253.978 2.73926ZM255.994 4.07227L253.166 6.90069L253.195 6.92955L253.224 6.95781L255.994 4.07227ZM257.327 6.05469L253.628 7.57769L253.656 7.64431L253.686 7.7099L257.327 6.05469ZM256.233 55V59H260.233V55H256.233ZM246.834 55H242.834V59H246.834V55ZM246.834 18.3936V14.3936H242.834V18.3936H246.834ZM256.233 18.3936H260.233V14.3936H256.233V18.3936ZM253.84 8.44727C253.84 8.77035 253.78 9.01176 253.686 9.21881L260.969 12.5292C261.558 11.2324 261.84 9.85595 261.84 8.44727H253.84ZM253.645 9.31182C253.524 9.59751 253.367 9.82681 253.166 10.028L258.823 15.6849C259.761 14.7468 260.493 13.6544 261.009 12.4362L253.645 9.31182ZM253.224 9.9709C253.015 10.1715 252.741 10.3629 252.363 10.5298L255.592 17.8491C256.763 17.3325 257.834 16.6351 258.764 15.742L253.224 9.9709ZM252.415 10.5071C252.187 10.6041 251.913 10.668 251.551 10.668V18.668C252.921 18.668 254.264 18.4128 255.54 17.8718L252.415 10.5071ZM251.551 10.668C251.19 10.668 250.888 10.6041 250.613 10.4907L247.567 17.8882C248.841 18.4128 250.18 18.668 251.551 18.668V10.668ZM250.745 10.548C250.386 10.3846 250.106 10.1904 249.878 9.9709L244.337 15.742C245.248 16.6163 246.29 17.3107 247.435 17.8309L250.745 10.548ZM249.993 10.0863C249.774 9.85771 249.579 9.57819 249.416 9.21881L242.133 12.5292C242.653 13.6738 243.348 14.7159 244.222 15.6266L249.993 10.0863ZM249.457 9.31182C249.36 9.08329 249.296 8.80912 249.296 8.44727H241.296C241.296 9.81719 241.551 11.1609 242.092 12.4362L249.457 9.31182ZM249.296 8.44727C249.296 8.12328 249.354 7.8587 249.457 7.61689L242.092 4.49249C241.557 5.75458 241.296 7.08505 241.296 8.44727H249.296ZM249.434 7.66925C249.595 7.30402 249.77 7.06604 249.936 6.90069L244.279 1.24384C243.351 2.17224 242.637 3.25587 242.115 4.44013L249.434 7.66925ZM249.936 6.90069C250.137 6.69949 250.366 6.54279 250.652 6.42158L247.528 -0.943069C246.309 -0.426251 245.217 0.30572 244.279 1.24384L249.936 6.90069ZM250.704 6.39893C250.959 6.2867 251.228 6.22656 251.551 6.22656V-1.77344C250.142 -1.77344 248.77 -1.49177 247.475 -0.920413L250.704 6.39893ZM251.551 6.22656C251.874 6.22656 252.115 6.28661 252.322 6.38072L255.633 -0.902208C254.336 -1.49169 252.959 -1.77344 251.551 -1.77344V6.22656ZM252.455 6.43797C252.761 6.56411 252.984 6.71939 253.166 6.90069L258.823 1.24384C257.865 0.285817 256.744 -0.447569 255.501 -0.959455L252.455 6.43797ZM253.224 6.95781C253.369 7.09674 253.508 7.28481 253.628 7.57769L261.026 4.53169C260.508 3.27509 259.759 2.14154 258.764 1.18672L253.224 6.95781ZM253.686 7.7099C253.786 7.93106 253.84 8.16299 253.84 8.44727H261.84C261.84 7.04534 261.552 5.68223 260.969 4.39948L253.686 7.7099ZM256.233 51H246.834V59H256.233V51ZM250.834 55V18.3936H242.834V55H250.834ZM246.834 22.3936H256.233V14.3936H246.834V22.3936ZM252.233 18.3936V55H260.233V18.3936H252.233ZM262.146 55H258.146V59H262.146V55ZM262.146 45.7031V41.7031H258.146V45.7031H262.146ZM265.53 38.3545L262.672 41.1523L262.687 41.1677L262.702 41.1829L265.53 38.3545ZM263.035 34.6289L259.346 36.1758L259.357 36.201L259.368 36.226L263.035 34.6289ZM263.035 25.5371L259.368 23.94L259.357 23.965L259.346 23.9902L263.035 25.5371ZM269.222 19.3848L270.769 23.0735L270.794 23.063L270.819 23.0521L269.222 19.3848ZM292.669 18.4619H296.669V14.4619H292.669V18.4619ZM292.669 27.7588V31.7588H296.669V27.7588H292.669ZM272.127 31.792L269.23 34.5506L269.264 34.5859L269.299 34.6204L272.127 31.792ZM287.986 33.2959L286.542 37.0262L286.569 37.0364L286.595 37.0462L287.986 33.2959ZM291.678 35.5176L294.375 32.5636L291.678 35.5176ZM294.173 47.9248L297.831 49.5438L297.835 49.5328L297.84 49.5219L294.173 47.9248ZM291.678 51.6162L294.506 54.4446L294.521 54.4294L294.536 54.4141L291.678 51.6162ZM287.986 54.1113L289.533 57.8001L289.558 57.7896L289.583 57.7787L287.986 54.1113ZM283.475 51H262.146V59H283.475V51ZM266.146 55V45.7031H258.146V55H266.146ZM262.146 49.7031H283.475V41.7031H262.146V49.7031ZM283.475 49.7031C285.186 49.7031 286.746 49.0453 287.944 47.848L282.287 42.1911C282.396 42.0822 282.575 41.944 282.825 41.8399C283.075 41.7355 283.307 41.7031 283.475 41.7031V49.7031ZM287.944 47.848C289.141 46.6506 289.799 45.0898 289.799 43.3789H281.799C281.799 43.2108 281.831 42.9797 281.936 42.7291C282.04 42.4794 282.178 42.3 282.287 42.1911L287.944 47.848ZM289.799 43.3789C289.799 41.751 289.13 39.5002 286.757 38.4324L283.474 45.7278C282.906 45.4724 282.4 45.0133 282.088 44.4216C281.813 43.8979 281.799 43.4802 281.799 43.3789H289.799ZM286.757 38.4324C285.663 37.9403 284.528 37.7725 283.475 37.7725V45.7725C283.527 45.7725 283.566 45.7746 283.591 45.7768C283.617 45.779 283.628 45.7812 283.626 45.7809C283.623 45.7802 283.566 45.7691 283.474 45.7278L286.757 38.4324ZM283.475 37.7725H273.768V45.7725H283.475V37.7725ZM273.768 37.7725C272.671 37.7725 271.703 37.5672 270.819 37.1823L267.625 44.5169C269.566 45.3625 271.628 45.7725 273.768 45.7725V37.7725ZM270.819 37.1823C269.847 36.759 269.039 36.206 268.359 35.5261L262.702 41.1829C264.118 42.5993 265.771 43.7097 267.625 44.5169L270.819 37.1823ZM268.389 35.5566C267.691 34.8433 267.129 34.0113 266.702 33.0318L259.368 36.226C260.172 38.072 261.273 39.7238 262.672 41.1523L268.389 35.5566ZM266.724 33.082C266.348 32.1862 266.146 31.1999 266.146 30.083H258.146C258.146 32.2018 258.537 34.2461 259.346 36.1758L266.724 33.082ZM266.146 30.083C266.146 28.9661 266.348 27.9798 266.724 27.084L259.346 23.9902C258.537 25.92 258.146 27.9642 258.146 30.083H266.146ZM266.702 27.1342C267.126 26.1623 267.679 25.3541 268.359 24.6741L262.702 19.0173C261.285 20.4337 260.175 22.0864 259.368 23.94L266.702 27.1342ZM268.359 24.6741C269.027 24.0056 269.818 23.472 270.769 23.0735L267.675 15.696C265.799 16.4824 264.13 17.5895 262.702 19.0173L268.359 24.6741ZM270.819 23.0521C271.703 22.6672 272.671 22.4619 273.768 22.4619V14.4619C271.628 14.4619 269.566 14.8719 267.625 15.7174L270.819 23.0521ZM273.768 22.4619H292.669V14.4619H273.768V22.4619ZM288.669 18.4619V27.7588H296.669V18.4619H288.669ZM292.669 23.7588H273.768V31.7588H292.669V23.7588ZM273.768 23.7588C272.057 23.7588 270.496 24.4166 269.299 25.614L274.955 31.2708C274.846 31.3797 274.667 31.5179 274.417 31.622C274.167 31.7264 273.936 31.7588 273.768 31.7588V23.7588ZM269.299 25.614C268.101 26.8113 267.443 28.3721 267.443 30.083H275.443C275.443 30.2511 275.411 30.4823 275.307 30.7328C275.203 30.9825 275.064 31.1619 274.955 31.2708L269.299 25.614ZM267.443 30.083C267.443 31.7709 268.066 33.3283 269.23 34.5506L275.024 29.0334C275.119 29.134 275.239 29.2973 275.328 29.5203C275.417 29.7433 275.443 29.944 275.443 30.083H267.443ZM269.299 34.6204C270.496 35.8177 272.057 36.4756 273.768 36.4756V28.4756C273.936 28.4756 274.167 28.508 274.417 28.6124C274.667 28.7164 274.846 28.8547 274.955 28.9636L269.299 34.6204ZM273.768 36.4756H283.475V28.4756H273.768V36.4756ZM283.475 36.4756C284.602 36.4756 285.614 36.6669 286.542 37.0262L289.43 29.5656C287.533 28.8312 285.537 28.4756 283.475 28.4756V36.4756ZM286.595 37.0462C287.556 37.4024 288.336 37.8825 288.981 38.4715L294.375 32.5636C292.924 31.2386 291.243 30.2375 289.378 29.5456L286.595 37.0462ZM288.981 38.4715C289.615 39.0512 290.134 39.7577 290.536 40.6342L297.81 37.3052C296.981 35.493 295.836 33.8981 294.375 32.5636L288.981 38.4715ZM290.536 40.6342C290.893 41.416 291.096 42.3123 291.096 43.3789H299.096C299.096 41.2554 298.683 39.2122 297.81 37.3052L290.536 40.6342ZM291.096 43.3789C291.096 44.4752 290.89 45.4439 290.506 46.3277L297.84 49.5219C298.686 47.5802 299.096 45.5183 299.096 43.3789H291.096ZM290.515 46.3058C290.091 47.2646 289.528 48.0944 288.819 48.8184L294.536 54.4141C295.924 52.9961 297.024 51.3649 297.831 49.5438L290.515 46.3058ZM288.849 48.7878C288.169 49.4677 287.361 50.0208 286.389 50.444L289.583 57.7787C291.437 56.9714 293.09 55.8611 294.506 54.4446L288.849 48.7878ZM286.439 50.4226C285.537 50.8011 284.561 51 283.475 51V59C285.579 59 287.61 58.6064 289.533 57.8001L286.439 50.4226ZM312.083 53.7354L310.482 57.4009L310.5 57.4087L310.518 57.4163L312.083 53.7354ZM306.854 50.2148L304.004 53.0216L304.025 53.0434L304.047 53.0648L306.854 50.2148ZM303.333 44.9854L299.652 46.5508L299.66 46.5687L299.667 46.5864L303.333 44.9854ZM302.068 27.7588H306.068V23.7588H302.068V27.7588ZM297.522 27.7588H293.522V31.7588H297.522V27.7588ZM297.522 18.4619V14.4619H293.522V18.4619H297.522ZM302.068 18.4619V22.4619H306.068V18.4619H302.068ZM302.068 3.83301V-0.166992H298.068V3.83301H302.068ZM311.365 3.83301H315.365V-0.166992H311.365V3.83301ZM311.365 18.4619H307.365V22.4619H311.365V18.4619ZM325.516 18.4619H329.516V14.4619H325.516V18.4619ZM325.516 27.7588V31.7588H329.516V27.7588H325.516ZM311.365 27.7588V23.7588H307.365V27.7588H311.365ZM311.912 41.3965L308.226 42.9487L308.233 42.9665L308.241 42.9841L311.912 41.3965ZM313.416 43.6182L316.244 40.7897L313.416 43.6182ZM315.672 45.1562L314.038 48.8075L314.079 48.8256L314.12 48.8428L315.672 45.1562ZM325.516 45.7031H329.516V41.7031H325.516V45.7031ZM325.516 55V59H329.516V55H325.516ZM318.44 51C316.697 51 315.113 50.6771 313.648 50.0544L310.518 57.4163C313.018 58.4798 315.672 59 318.44 59V51ZM313.684 50.0698C312.139 49.3948 310.807 48.4941 309.66 47.3649L304.047 53.0648C305.908 54.8978 308.062 56.3442 310.482 57.4009L313.684 50.0698ZM309.703 47.4081C308.574 46.2615 307.674 44.9297 306.999 43.3843L299.667 46.5864C300.724 49.0059 302.171 51.1603 304.004 53.0216L309.703 47.4081ZM307.014 43.4199C306.391 41.9558 306.068 40.3717 306.068 38.6279H298.068C298.068 41.3959 298.589 44.0501 299.652 46.5508L307.014 43.4199ZM306.068 38.6279V27.7588H298.068V38.6279H306.068ZM302.068 23.7588H297.522V31.7588H302.068V23.7588ZM301.522 27.7588V18.4619H293.522V27.7588H301.522ZM297.522 22.4619H302.068V14.4619H297.522V22.4619ZM306.068 18.4619V3.83301H298.068V18.4619H306.068ZM302.068 7.83301H311.365V-0.166992H302.068V7.83301ZM307.365 3.83301V18.4619H315.365V3.83301H307.365ZM311.365 22.4619H325.516V14.4619H311.365V22.4619ZM321.516 18.4619V27.7588H329.516V18.4619H321.516ZM325.516 23.7588H311.365V31.7588H325.516V23.7588ZM307.365 27.7588V38.6279H315.365V27.7588H307.365ZM307.365 38.6279C307.365 40.1176 307.645 41.5704 308.226 42.9487L315.599 39.8443C315.45 39.4908 315.365 39.0979 315.365 38.6279H307.365ZM308.241 42.9841C308.802 44.2818 309.586 45.4453 310.588 46.4466L316.244 40.7897C315.97 40.515 315.752 40.1974 315.584 39.8088L308.241 42.9841ZM310.588 46.4466C311.588 47.4469 312.75 48.2313 314.038 48.8075L317.305 41.505C316.861 41.3064 316.52 41.0655 316.244 40.7897L310.588 46.4466ZM314.12 48.8428C315.498 49.4231 316.951 49.7031 318.44 49.7031V41.7031C317.97 41.7031 317.578 41.6185 317.224 41.4697L314.12 48.8428ZM318.44 49.7031H325.516V41.7031H318.44V49.7031ZM321.516 45.7031V55H329.516V45.7031H321.516ZM325.516 51H318.44V59H325.516V51ZM340.11 55V59H344.11V55H340.11ZM330.779 55H326.779V59H330.779V55ZM330.779 18.3936V14.3936H326.779V18.3936H330.779ZM333.035 18.3936L336.299 16.0808L335.103 14.3936H333.035V18.3936ZM336.111 22.7344L332.848 25.0472L335.46 28.7327L338.802 25.6941L336.111 22.7344ZM341.238 19.5898L342.662 23.3278L342.682 23.3204L342.701 23.3128L341.238 19.5898ZM355.423 18.4619H359.423V14.4619H355.423V18.4619ZM355.423 27.7588V31.7588H359.423V27.7588H355.423ZM344.417 28.3057L342.865 24.6191L344.417 28.3057ZM340.11 51H330.779V59H340.11V51ZM334.779 55V18.3936H326.779V55H334.779ZM330.779 22.3936H333.035V14.3936H330.779V22.3936ZM329.772 20.7063L332.848 25.0472L339.375 20.4216L336.299 16.0808L329.772 20.7063ZM338.802 25.6941C339.933 24.6659 341.212 23.8804 342.662 23.3278L339.814 15.8519C337.437 16.7576 335.297 18.0685 333.421 19.7746L338.802 25.6941ZM342.701 23.3128C344.15 22.7434 345.637 22.4619 347.186 22.4619V14.4619C344.633 14.4619 342.154 14.9324 339.776 15.8668L342.701 23.3128ZM347.186 22.4619H355.423V14.4619H347.186V22.4619ZM351.423 18.4619V27.7588H359.423V18.4619H351.423ZM355.423 23.7588H347.186V31.7588H355.423V23.7588ZM347.186 23.7588C345.696 23.7588 344.243 24.0388 342.865 24.6191L345.969 31.9922C346.323 31.8434 346.716 31.7588 347.186 31.7588V23.7588ZM342.865 24.6191C341.542 25.1761 340.352 25.9622 339.333 26.9811L344.99 32.638C345.247 32.3809 345.56 32.1644 345.969 31.9922L342.865 24.6191ZM339.333 26.9811C338.314 28.0001 337.528 29.1904 336.971 30.5132L344.344 33.6177C344.516 33.2086 344.732 32.8951 344.99 32.638L339.333 26.9811ZM336.971 30.5132C336.39 31.8915 336.11 33.3444 336.11 34.834H344.11C344.11 34.364 344.195 33.9711 344.344 33.6177L336.971 30.5132ZM336.11 34.834V55H344.11V34.834H336.11ZM368.309 68.9453H364.309V72.8886L368.251 72.9449L368.309 68.9453ZM368.309 59.5459L368.361 55.5462L364.309 55.4929V59.5459H368.309ZM373.504 59.6143L373.451 63.6139L373.478 63.6143H373.504V59.6143ZM378.46 57.9395L376.125 54.6914L376.101 54.709L376.077 54.7271L378.46 57.9395ZM380.374 56.0596L377.211 53.6109L377.192 53.6351L377.174 53.6596L380.374 56.0596ZM381.707 53.7354L385.414 55.2382L389.038 46.298L380.151 50.0504L381.707 53.7354ZM378.562 55.0342L377.063 51.3257L377.049 51.3314L377.035 51.3371L378.562 55.0342ZM363.797 51.1035L360.968 53.9319L360.99 53.9537L361.012 53.9751L363.797 51.1035ZM360.276 45.7373L356.56 47.216L356.569 47.2402L356.579 47.2643L360.276 45.7373ZM359.012 18.3936V14.3936H355.012V18.3936H359.012ZM368.309 18.3936H372.309V14.3936H368.309V18.3936ZM368.855 42.0459L365.107 43.4408L365.126 43.494L365.148 43.5467L368.855 42.0459ZM370.394 44.4727L367.516 47.251L367.54 47.2763L367.565 47.3011L370.394 44.4727ZM372.615 45.9082L371.2 49.6493L371.216 49.6555L371.232 49.6616L372.615 45.9082ZM378.084 45.7373L379.911 49.2956L379.929 49.2864L379.947 49.277L378.084 45.7373ZM381.844 41.499L385.558 42.9846L385.564 42.9689L385.57 42.9532L381.844 41.499ZM382.391 18.3936V14.3936H378.391V18.3936H382.391ZM391.79 18.3936H395.79V14.3936H391.79V18.3936ZM391.79 50.3857L395.79 50.4211L395.79 50.4034V50.3857H391.79ZM390.286 57.6318L386.617 56.0383L390.286 57.6318ZM386.253 63.5449L383.444 60.6976L383.434 60.707L383.425 60.7165L386.253 63.5449ZM373.094 69.0137L373.037 73.0133L373.065 73.0137H373.094V69.0137ZM372.309 68.9453V59.5459H364.309V68.9453H372.309ZM368.256 63.5456L373.451 63.6139L373.557 55.6146L368.361 55.5462L368.256 63.5456ZM373.504 63.6143C374.858 63.6143 376.184 63.3927 377.462 62.9438L374.81 55.3961C374.401 55.5396 373.973 55.6143 373.504 55.6143V63.6143ZM377.462 62.9438C378.677 62.5167 379.809 61.9189 380.843 61.1518L376.077 54.7271C375.698 55.0082 375.28 55.2307 374.81 55.3961L377.462 62.9438ZM380.795 61.1875C381.859 60.4227 382.787 59.5088 383.574 58.4596L377.174 53.6596C376.867 54.0687 376.52 54.408 376.125 54.6914L380.795 61.1875ZM383.537 58.5083C384.312 57.5076 384.937 56.4137 385.414 55.2382L378 52.2325C377.793 52.7432 377.53 53.1988 377.211 53.6109L383.537 58.5083ZM380.151 50.0504C379.145 50.475 378.116 50.9002 377.063 51.3257L380.062 58.7426C381.151 58.3023 382.218 57.8615 383.263 57.4203L380.151 50.0504ZM377.035 51.3371C376.443 51.582 375.9 51.6836 375.384 51.6836V59.6836C377.009 59.6836 378.586 59.3522 380.09 58.7312L377.035 51.3371ZM375.384 51.6836C373.611 51.6836 372.001 51.3725 370.519 50.7763L367.533 58.1983C370.017 59.1972 372.645 59.6836 375.384 59.6836V51.6836ZM370.519 50.7763C369.008 50.1683 367.706 49.3221 366.581 48.2319L361.012 53.9751C362.896 55.8016 365.08 57.2112 367.533 58.1983L370.519 50.7763ZM366.625 48.2751C365.546 47.1962 364.655 45.8605 363.973 44.2103L356.579 47.2643C357.629 49.8068 359.085 52.0485 360.968 53.9319L366.625 48.2751ZM363.993 44.2586C363.363 42.6747 363.012 40.8166 363.012 38.6279H355.012C355.012 41.6801 355.504 44.5616 356.56 47.216L363.993 44.2586ZM363.012 38.6279V18.3936H355.012V38.6279H363.012ZM359.012 22.3936H368.309V14.3936H359.012V22.3936ZM364.309 18.3936V38.6279H372.309V18.3936H364.309ZM364.309 38.6279C364.309 40.2919 364.541 41.9212 365.107 43.4408L372.604 40.651C372.441 40.2109 372.309 39.5617 372.309 38.6279H364.309ZM365.148 43.5467C365.704 44.9201 366.48 46.1785 367.516 47.251L373.271 41.6943C373.031 41.4452 372.782 41.0857 372.563 40.5451L365.148 43.5467ZM367.565 47.3011C368.604 48.3396 369.826 49.1295 371.2 49.6493L374.031 42.1671C373.719 42.0489 373.459 41.8817 373.222 41.6442L367.565 47.3011ZM371.232 49.6616C372.568 50.1536 373.961 50.3867 375.384 50.3867V42.3867C374.846 42.3867 374.394 42.3008 373.998 42.1548L371.232 49.6616ZM375.384 50.3867C376.97 50.3867 378.497 50.0218 379.911 49.2956L376.257 42.179C375.985 42.3187 375.712 42.3867 375.384 42.3867V50.3867ZM379.947 49.277C381.243 48.5947 382.385 47.6967 383.35 46.594L377.33 41.3259C377.018 41.6816 376.656 41.9684 376.221 42.1976L379.947 49.277ZM383.35 46.594C384.29 45.52 385.027 44.3102 385.558 42.9846L378.13 40.0135C377.931 40.5107 377.666 40.9416 377.33 41.3259L383.35 46.594ZM385.57 42.9532C386.111 41.5666 386.391 40.1171 386.391 38.6279H378.391C378.391 39.0984 378.305 39.563 378.117 40.0449L385.57 42.9532ZM386.391 38.6279V18.3936H378.391V38.6279H386.391ZM382.391 22.3936H391.79V14.3936H382.391V22.3936ZM387.79 18.3936V50.3857H395.79V18.3936H387.79ZM387.79 50.3503C387.772 52.4146 387.373 54.2974 386.617 56.0383L393.955 59.2254C395.158 56.4546 395.763 53.5067 395.79 50.4211L387.79 50.3503ZM386.617 56.0383C385.836 57.8368 384.78 59.3794 383.444 60.6976L389.062 66.3923C391.144 64.3381 392.777 61.9386 393.955 59.2254L386.617 56.0383ZM383.425 60.7165C382.105 62.0363 380.556 63.089 378.746 63.8751L381.933 71.2128C384.635 70.0393 387.029 68.4259 389.081 66.3733L383.425 60.7165ZM378.746 63.8751C377.017 64.6263 375.147 65.0137 373.094 65.0137V73.0137C376.191 73.0137 379.151 72.4213 381.933 71.2128L378.746 63.8751ZM373.151 65.0141L368.366 64.9457L368.251 72.9449L373.037 73.0133L373.151 65.0141Z" fill="black"/>
</svg>
