<svg width="169" height="31" viewBox="0 0 169 31" fill="none" xmlns="http://www.w3.org/2000/svg">
<path d="M6.58691 24H2.58789V12.2959H0.639648V8.31152H2.58789V7.56445C2.58789 6.59766 2.76855 5.68945 3.12988 4.83984C3.50098 3.99023 4.00391 3.25293 4.63867 2.62793C5.2832 1.99316 6.03027 1.49512 6.87988 1.13379C7.72949 0.762695 8.6377 0.577148 9.60449 0.577148H12.6074V4.56152H9.60449C9.1748 4.56152 8.77441 4.63965 8.40332 4.7959C8.04199 4.94238 7.72461 5.15234 7.45117 5.42578C7.1875 5.68945 6.97754 6.00684 6.82129 6.37793C6.66504 6.73926 6.58691 7.13477 6.58691 7.56445V8.31152H11.4941V12.2959H6.58691V24ZM17.4268 24H13.3984V2.07129H17.4268V24ZM35.6494 16.0166C35.6494 17.1885 35.4395 18.2822 35.0195 19.2979C34.5996 20.3037 34.0283 21.1777 33.3057 21.9199C32.583 22.6523 31.7334 23.2334 30.7568 23.6631C29.79 24.083 28.75 24.293 27.6367 24.293C26.5332 24.293 25.4932 24.083 24.5166 23.6631C23.5498 23.2334 22.7002 22.6523 21.9678 21.9199C21.2451 21.1777 20.6738 20.3037 20.2539 19.2979C19.834 18.2822 19.624 17.1885 19.624 16.0166C19.624 14.8252 19.834 13.7217 20.2539 12.7061C20.6738 11.6904 21.2451 10.8164 21.9678 10.084C22.7002 9.3418 23.5498 8.76074 24.5166 8.34082C25.4932 7.9209 26.5332 7.71094 27.6367 7.71094C28.75 7.71094 29.79 7.91113 30.7568 8.31152C31.7334 8.70215 32.583 9.26367 33.3057 9.99609C34.0283 10.7188 34.5996 11.5928 35.0195 12.6182C35.4395 13.6338 35.6494 14.7666 35.6494 16.0166ZM31.6211 16.0166C31.6211 15.3721 31.5137 14.791 31.2988 14.2734C31.0938 13.7461 30.8105 13.2969 30.4492 12.9258C30.0879 12.5449 29.6631 12.2568 29.1748 12.0615C28.6963 11.8564 28.1836 11.7539 27.6367 11.7539C27.0898 11.7539 26.5723 11.8564 26.084 12.0615C25.6055 12.2568 25.1855 12.5449 24.8242 12.9258C24.4727 13.2969 24.1943 13.7461 23.9893 14.2734C23.7842 14.791 23.6816 15.3721 23.6816 16.0166C23.6816 16.6221 23.7842 17.1836 23.9893 17.7012C24.1943 18.2188 24.4727 18.668 24.8242 19.0488C25.1855 19.4297 25.6055 19.7324 26.084 19.957C26.5723 20.1719 27.0898 20.2793 27.6367 20.2793C28.1836 20.2793 28.6963 20.1768 29.1748 19.9717C29.6631 19.7666 30.0879 19.4785 30.4492 19.1074C30.8105 18.7363 31.0938 18.2871 31.2988 17.7598C31.5137 17.2324 31.6211 16.6514 31.6211 16.0166ZM57.666 18.3311C57.666 19.1514 57.5098 19.9277 57.1973 20.6602C56.8848 21.3828 56.4551 22.0127 55.9082 22.5498C55.3711 23.0869 54.7363 23.5117 54.0039 23.8242C53.2812 24.1367 52.5049 24.293 51.6748 24.293C50.9326 24.293 50.2197 24.166 49.5361 23.9121C48.8525 23.6484 48.2324 23.2676 47.6758 22.7695C47.1289 23.2676 46.5137 23.6484 45.8301 23.9121C45.1562 24.166 44.4434 24.293 43.6914 24.293C42.8613 24.293 42.085 24.1367 41.3623 23.8242C40.6396 23.5117 40.0049 23.0869 39.458 22.5498C38.9209 22.0127 38.4961 21.3828 38.1836 20.6602C37.8711 19.9277 37.7148 19.1514 37.7148 18.3311V8.34082H41.7139V18.3311C41.7139 18.6045 41.7627 18.8633 41.8604 19.1074C41.9678 19.3418 42.1094 19.5518 42.2852 19.7373C42.4707 19.9131 42.6807 20.0547 42.915 20.1621C43.1592 20.2598 43.418 20.3086 43.6914 20.3086C43.9648 20.3086 44.2236 20.2598 44.4678 20.1621C44.7119 20.0547 44.9268 19.9131 45.1123 19.7373C45.2979 19.5518 45.4395 19.3418 45.5371 19.1074C45.6445 18.8633 45.6982 18.6045 45.6982 18.3311V8.34082H49.6826V18.3311C49.6826 18.6045 49.7363 18.8633 49.8438 19.1074C49.9512 19.3418 50.0928 19.5518 50.2686 19.7373C50.4541 19.9131 50.6641 20.0547 50.8984 20.1621C51.1426 20.2598 51.4014 20.3086 51.6748 20.3086C51.9482 20.3086 52.207 20.2598 52.4512 20.1621C52.6953 20.0547 52.9053 19.9131 53.0811 19.7373C53.2666 19.5518 53.4131 19.3418 53.5205 19.1074C53.6279 18.8633 53.6816 18.6045 53.6816 18.3311V8.34082H57.666V18.3311ZM73.3545 15.6064V11.4023C73.3545 10.8262 73.2422 10.2842 73.0176 9.77637C72.8027 9.25879 72.5049 8.80957 72.124 8.42871C71.7432 8.04785 71.2939 7.75 70.7764 7.53516C70.2686 7.31055 69.7266 7.19824 69.1504 7.19824C68.5742 7.19824 68.0273 7.31055 67.5098 7.53516C67.002 7.75 66.5576 8.04785 66.1768 8.42871C65.7959 8.80957 65.4932 9.25879 65.2686 9.77637C65.0537 10.2842 64.9463 10.8262 64.9463 11.4023V15.6064H73.3545ZM77.5586 24H73.3545V19.7959H64.9463V24H60.7568V11.4023C60.7568 10.2402 60.9766 9.15137 61.416 8.13574C61.8555 7.11035 62.4512 6.2168 63.2031 5.45508C63.9648 4.69336 64.8535 4.09277 65.8691 3.65332C66.8945 3.21387 67.9883 2.99414 69.1504 2.99414C70.3125 2.99414 71.4014 3.21387 72.417 3.65332C73.4424 4.09277 74.3359 4.69336 75.0977 5.45508C75.8594 6.2168 76.46 7.11035 76.8994 8.13574C77.3389 9.15137 77.5586 10.2402 77.5586 11.4023V24ZM84.7803 24H80.7812V8.31152H81.748L83.0664 10.1719C83.7109 9.58594 84.4434 9.13672 85.2637 8.82422C86.084 8.50195 86.9336 8.34082 87.8125 8.34082H91.3428V12.3252H87.8125C87.3926 12.3252 86.9971 12.4033 86.626 12.5596C86.2549 12.7158 85.9326 12.9307 85.6592 13.2041C85.3857 13.4775 85.1709 13.7998 85.0146 14.1709C84.8584 14.542 84.7803 14.9375 84.7803 15.3574V24ZM101.069 24C100.103 24 99.1943 23.8193 98.3447 23.458C97.4951 23.0869 96.748 22.584 96.1035 21.9492C95.4688 21.3047 94.9658 20.5576 94.5947 19.708C94.2334 18.8584 94.0527 17.9502 94.0527 16.9834V12.3252H92.1045V8.34082H94.0527V2.07129H98.0371V8.34082H104.102V12.3252H98.0371V16.9834C98.0371 17.4033 98.1152 17.7988 98.2715 18.1699C98.4277 18.5312 98.6426 18.8486 98.916 19.1221C99.1895 19.3955 99.5117 19.6152 99.8828 19.7812C100.254 19.9375 100.649 20.0156 101.069 20.0156H104.102V24H101.069ZM111.074 4.04883C111.074 4.41992 111.001 4.7666 110.854 5.08887C110.718 5.41113 110.527 5.69434 110.283 5.93848C110.039 6.17285 109.751 6.36328 109.419 6.50977C109.097 6.64648 108.75 6.71484 108.379 6.71484C108.008 6.71484 107.656 6.64648 107.324 6.50977C107.002 6.36328 106.719 6.17285 106.475 5.93848C106.24 5.69434 106.05 5.41113 105.903 5.08887C105.767 4.7666 105.698 4.41992 105.698 4.04883C105.698 3.6875 105.767 3.3457 105.903 3.02344C106.05 2.69141 106.24 2.4082 106.475 2.17383C106.719 1.92969 107.002 1.73926 107.324 1.60254C107.656 1.45605 108.008 1.38281 108.379 1.38281C108.75 1.38281 109.097 1.45605 109.419 1.60254C109.751 1.73926 110.039 1.92969 110.283 2.17383C110.527 2.4082 110.718 2.69141 110.854 3.02344C111.001 3.3457 111.074 3.6875 111.074 4.04883ZM110.386 24H106.357V8.31152H110.386V24ZM122.061 24H112.92V20.0156H122.061C122.334 20.0156 122.568 19.918 122.764 19.7227C122.959 19.5273 123.057 19.293 123.057 19.0195C123.057 18.7363 122.959 18.5508 122.764 18.4629C122.568 18.375 122.334 18.3311 122.061 18.3311H117.9C117.207 18.3311 116.558 18.1992 115.952 17.9355C115.347 17.6719 114.819 17.3154 114.37 16.8662C113.921 16.4072 113.564 15.875 113.301 15.2695C113.047 14.6641 112.92 14.0146 112.92 13.3213C112.92 12.6279 113.047 11.9785 113.301 11.373C113.564 10.7676 113.921 10.2402 114.37 9.79102C114.819 9.3418 115.347 8.99023 115.952 8.73633C116.558 8.47266 117.207 8.34082 117.9 8.34082H126.001V12.3252H117.9C117.627 12.3252 117.393 12.4229 117.197 12.6182C117.002 12.8135 116.904 13.0479 116.904 13.3213C116.904 13.6045 117.002 13.8486 117.197 14.0537C117.393 14.249 117.627 14.3467 117.9 14.3467H122.061C122.744 14.3467 123.389 14.4639 123.994 14.6982C124.6 14.9229 125.127 15.2402 125.576 15.6504C126.025 16.0605 126.382 16.5537 126.646 17.1299C126.909 17.7061 127.041 18.3359 127.041 19.0195C127.041 19.7129 126.909 20.3623 126.646 20.9678C126.382 21.5635 126.025 22.0908 125.576 22.5498C125.127 22.999 124.6 23.3555 123.994 23.6191C123.389 23.873 122.744 24 122.061 24ZM137.046 24C136.079 24 135.171 23.8193 134.321 23.458C133.472 23.0869 132.725 22.584 132.08 21.9492C131.445 21.3047 130.942 20.5576 130.571 19.708C130.21 18.8584 130.029 17.9502 130.029 16.9834V12.3252H128.081V8.34082H130.029V2.07129H134.014V8.34082H140.078V12.3252H134.014V16.9834C134.014 17.4033 134.092 17.7988 134.248 18.1699C134.404 18.5312 134.619 18.8486 134.893 19.1221C135.166 19.3955 135.488 19.6152 135.859 19.7812C136.23 19.9375 136.626 20.0156 137.046 20.0156H140.078V24H137.046ZM146.333 24H142.334V8.31152H143.301L144.619 10.1719C145.264 9.58594 145.996 9.13672 146.816 8.82422C147.637 8.50195 148.486 8.34082 149.365 8.34082H152.896V12.3252H149.365C148.945 12.3252 148.55 12.4033 148.179 12.5596C147.808 12.7158 147.485 12.9307 147.212 13.2041C146.938 13.4775 146.724 13.7998 146.567 14.1709C146.411 14.542 146.333 14.9375 146.333 15.3574V24ZM158.418 29.9766V25.9482L160.645 25.9775C161.035 25.9775 161.411 25.9141 161.772 25.7871C162.134 25.6602 162.466 25.4844 162.769 25.2598C163.081 25.0352 163.354 24.7666 163.589 24.4541C163.823 24.1514 164.014 23.8193 164.16 23.458C163.721 23.6436 163.271 23.8291 162.812 24.0146C162.363 24.2002 161.909 24.293 161.45 24.293C160.483 24.293 159.575 24.1221 158.726 23.7803C157.876 23.4385 157.129 22.9551 156.484 22.3301C155.85 21.6953 155.347 20.9287 154.976 20.0303C154.614 19.1221 154.434 18.1064 154.434 16.9834V8.31152H158.418V16.9834C158.418 17.54 158.496 18.0283 158.652 18.4482C158.818 18.8584 159.038 19.2051 159.312 19.4883C159.585 19.7617 159.902 19.9668 160.264 20.1035C160.635 20.2402 161.03 20.3086 161.45 20.3086C161.86 20.3086 162.246 20.2158 162.607 20.0303C162.979 19.835 163.301 19.5811 163.574 19.2686C163.848 18.9561 164.062 18.6045 164.219 18.2139C164.375 17.8135 164.453 17.4033 164.453 16.9834V8.31152H168.481V22.0225C168.472 23.126 168.257 24.1611 167.837 25.1279C167.417 26.0947 166.841 26.9395 166.108 27.6621C165.386 28.3848 164.541 28.9561 163.574 29.376C162.607 29.7959 161.572 30.0059 160.469 30.0059L158.418 29.9766Z" fill="#FFD700"/>
<path d="M6.58691 24V26H8.58691V24H6.58691ZM2.58789 24H0.587891V26H2.58789V24ZM2.58789 12.2959H4.58789V10.2959H2.58789V12.2959ZM0.639648 12.2959H-1.36035V14.2959H0.639648V12.2959ZM0.639648 8.31152V6.31152H-1.36035V8.31152H0.639648ZM2.58789 8.31152V10.3115H4.58789V8.31152H2.58789ZM3.12988 4.83984L1.29708 4.03931L1.29321 4.04819L1.28941 4.05711L3.12988 4.83984ZM4.63867 2.62793L6.04188 4.05306L6.04205 4.0529L4.63867 2.62793ZM6.87988 1.13379L7.66261 2.97426L7.67153 2.97047L7.68042 2.96659L6.87988 1.13379ZM12.6074 0.577148H14.6074V-1.42285H12.6074V0.577148ZM12.6074 4.56152V6.56152H14.6074V4.56152H12.6074ZM8.40332 4.7959L9.15473 6.64938L9.16712 6.64436L9.17943 6.63917L8.40332 4.7959ZM7.45117 5.42578L8.86539 6.83999L7.45117 5.42578ZM6.82129 6.37793L8.657 7.17175L8.66082 7.16292L8.66456 7.15404L6.82129 6.37793ZM6.58691 8.31152H4.58691V10.3115H6.58691V8.31152ZM11.4941 8.31152H13.4941V6.31152H11.4941V8.31152ZM11.4941 12.2959V14.2959H13.4941V12.2959H11.4941ZM6.58691 12.2959V10.2959H4.58691V12.2959H6.58691ZM6.58691 22H2.58789V26H6.58691V22ZM4.58789 24V12.2959H0.587891V24H4.58789ZM2.58789 10.2959H0.639648V14.2959H2.58789V10.2959ZM2.63965 12.2959V8.31152H-1.36035V12.2959H2.63965ZM0.639648 10.3115H2.58789V6.31152H0.639648V10.3115ZM4.58789 8.31152V7.56445H0.587891V8.31152H4.58789ZM4.58789 7.56445C4.58789 6.85371 4.71924 6.21303 4.97035 5.62257L1.28941 4.05711C0.817869 5.16588 0.587891 6.3416 0.587891 7.56445H4.58789ZM4.96268 5.64038C5.23594 5.01476 5.5962 4.49188 6.04188 4.05306L3.23546 1.2028C2.41161 2.01398 1.76602 2.96571 1.29708 4.03931L4.96268 5.64038ZM6.04205 4.0529C6.5039 3.59805 7.03928 3.23936 7.66261 2.97426L6.09715 -0.706682C5.02127 -0.249122 4.06251 0.388281 3.23529 1.20296L6.04205 4.0529ZM7.68042 2.96659C8.26674 2.71049 8.90116 2.57715 9.60449 2.57715V-1.42285C8.37423 -1.42285 7.19225 -1.1851 6.07935 -0.699009L7.68042 2.96659ZM9.60449 2.57715H12.6074V-1.42285H9.60449V2.57715ZM10.6074 0.577148V4.56152H14.6074V0.577148H10.6074ZM12.6074 2.56152H9.60449V6.56152H12.6074V2.56152ZM9.60449 2.56152C8.92638 2.56152 8.26016 2.68612 7.62721 2.95263L9.17943 6.63917C9.28867 6.59317 9.42323 6.56152 9.60449 6.56152V2.56152ZM7.65191 2.94242C7.04458 3.18863 6.5013 3.54722 6.03696 4.01157L8.86539 6.83999C8.94791 6.75747 9.0394 6.69613 9.15473 6.64938L7.65191 2.94242ZM6.03696 4.01157C5.57618 4.47235 5.22659 5.01146 4.97802 5.60182L8.66456 7.15404C8.72849 7.00221 8.79882 6.90656 8.86539 6.83999L6.03696 4.01157ZM4.98557 5.58411C4.71138 6.21819 4.58691 6.88691 4.58691 7.56445H8.58691C8.58691 7.38262 8.6187 7.26033 8.657 7.17175L4.98557 5.58411ZM4.58691 7.56445V8.31152H8.58691V7.56445H4.58691ZM6.58691 10.3115H11.4941V6.31152H6.58691V10.3115ZM9.49414 8.31152V12.2959H13.4941V8.31152H9.49414ZM11.4941 10.2959H6.58691V14.2959H11.4941V10.2959ZM4.58691 12.2959V24H8.58691V12.2959H4.58691ZM17.4268 24V26H19.4268V24H17.4268ZM13.3984 24H11.3984V26H13.3984V24ZM13.3984 2.07129V0.0712891H11.3984V2.07129H13.3984ZM17.4268 2.07129H19.4268V0.0712891H17.4268V2.07129ZM17.4268 22H13.3984V26H17.4268V22ZM15.3984 24V2.07129H11.3984V24H15.3984ZM13.3984 4.07129H17.4268V0.0712891H13.3984V4.07129ZM15.4268 2.07129V24H19.4268V2.07129H15.4268ZM35.0195 19.2979L36.8652 20.0684L36.8678 20.062L35.0195 19.2979ZM33.3057 21.9199L34.7294 23.3246L34.7386 23.3152L33.3057 21.9199ZM30.7568 23.6631L31.5536 25.4975L31.5623 25.4937L30.7568 23.6631ZM24.5166 23.6631L23.7043 25.4907L23.7154 25.4956L23.7265 25.5004L24.5166 23.6631ZM21.9678 21.9199L20.5348 23.3152L20.5441 23.3247L20.5536 23.3341L21.9678 21.9199ZM20.2539 19.2979L18.4056 20.062L18.4083 20.0684L20.2539 19.2979ZM21.9678 10.084L20.5442 8.67917L20.5441 8.67929L21.9678 10.084ZM24.5166 8.34082L23.7265 6.50347L23.7198 6.50639L24.5166 8.34082ZM30.7568 8.31152L29.9916 10.1593L30.0028 10.164L30.0141 10.1685L30.7568 8.31152ZM33.3057 9.99609L31.882 11.4008L31.8915 11.4103L33.3057 9.99609ZM35.0195 12.6182L33.1687 13.3761L33.1713 13.3823L35.0195 12.6182ZM31.2988 14.2734L29.4348 14.9983L29.443 15.0194L29.4516 15.0402L31.2988 14.2734ZM30.4492 12.9258L28.9983 14.3023L29.0072 14.3117L29.0163 14.321L30.4492 12.9258ZM29.1748 12.0615L28.387 13.8998L28.4094 13.9094L28.432 13.9185L29.1748 12.0615ZM26.084 12.0615L26.8398 13.9132L26.8491 13.9094L26.8584 13.9055L26.084 12.0615ZM24.8242 12.9258L23.3733 11.5493L23.3723 11.5503L24.8242 12.9258ZM23.9893 14.2734L25.8487 15.0102L25.8533 14.9983L23.9893 14.2734ZM24.8242 19.0488L23.3546 20.4054L23.3639 20.4154L23.3733 20.4253L24.8242 19.0488ZM26.084 19.957L25.2342 21.7675L25.2562 21.7779L25.2785 21.7877L26.084 19.957ZM29.1748 19.9717L28.4003 18.1277L28.3936 18.1305L28.387 18.1334L29.1748 19.9717ZM31.2988 17.7598L29.4466 17.0052L29.4406 17.02L29.4348 17.0349L31.2988 17.7598ZM33.6494 16.0166C33.6494 16.9439 33.4845 17.7761 33.1713 18.5337L36.8678 20.062C37.3944 18.7883 37.6494 17.4331 37.6494 16.0166H33.6494ZM33.1739 18.5273C32.8459 19.3131 32.4107 19.9722 31.8727 20.5247L34.7386 23.3152C35.646 22.3832 36.3534 21.2943 36.8652 20.0684L33.1739 18.5273ZM31.882 20.5152C31.3432 21.0613 30.7055 21.5006 29.9514 21.8325L31.5623 25.4937C32.7613 24.9662 33.8228 24.2434 34.7293 23.3246L31.882 20.5152ZM29.9601 21.8287C29.2587 22.1333 28.4915 22.293 27.6367 22.293V26.293C29.0085 26.293 30.3214 26.0327 31.5536 25.4975L29.9601 21.8287ZM27.6367 22.293C26.7943 22.293 26.0241 22.1343 25.3067 21.8257L23.7265 25.5004C24.9622 26.0318 26.2721 26.293 27.6367 26.293V22.293ZM25.3289 21.8355C24.5815 21.5033 23.9371 21.0608 23.382 20.5057L20.5536 23.3341C21.4633 24.2439 22.5181 24.9635 23.7043 25.4907L25.3289 21.8355ZM23.4007 20.5247C22.8628 19.9722 22.4276 19.3131 22.0995 18.5273L18.4083 20.0684C18.9201 21.2943 19.6274 22.3832 20.5348 23.3152L23.4007 20.5247ZM22.1022 18.5337C21.7889 17.7761 21.624 16.9439 21.624 16.0166H17.624C17.624 17.4331 17.879 18.7883 18.4057 20.062L22.1022 18.5337ZM21.624 16.0166C21.624 15.0652 21.7906 14.2238 22.1022 13.4702L18.4057 11.9419C17.8774 13.2195 17.624 14.5852 17.624 16.0166H21.624ZM22.1022 13.4702C22.4301 12.6771 22.8625 12.0248 23.3914 11.4887L20.5441 8.67929C19.6277 9.60803 18.9176 10.7038 18.4057 11.9419L22.1022 13.4702ZM23.3913 11.4888C23.9422 10.9306 24.5784 10.4945 25.3134 10.1753L23.7198 6.50639C22.5212 7.02701 21.4582 7.75302 20.5442 8.67917L23.3913 11.4888ZM25.3067 10.1782C26.0241 9.86965 26.7943 9.71094 27.6367 9.71094V5.71094C26.2721 5.71094 24.9622 5.97214 23.7265 6.50348L25.3067 10.1782ZM27.6367 9.71094C28.5044 9.71094 29.2826 9.86572 29.9916 10.1593L31.5221 6.46372C30.2974 5.95654 28.9956 5.71094 27.6367 5.71094V9.71094ZM30.0141 10.1685C30.7408 10.4592 31.3571 10.8688 31.882 11.4008L34.7293 8.5914C33.8089 7.65853 32.726 6.94513 31.4996 6.45457L30.0141 10.1685ZM31.8915 11.4103C32.4112 11.93 32.8408 12.5754 33.1687 13.3761L36.8703 11.8602C36.3584 10.6101 35.6455 9.50746 34.7199 8.58188L31.8915 11.4103ZM33.1713 13.3823C33.4782 14.1246 33.6494 14.993 33.6494 16.0166H37.6494C37.6494 14.5402 37.4007 13.143 36.8678 11.854L33.1713 13.3823ZM33.6211 16.0166C33.6211 15.1481 33.4757 14.301 33.146 13.5067L29.4516 15.0402C29.5516 15.281 29.6211 15.5961 29.6211 16.0166H33.6211ZM33.1628 13.5485C32.8695 12.7944 32.4474 12.111 31.8822 11.5305L29.0163 14.321C29.1737 14.4827 29.318 14.6978 29.4348 14.9983L33.1628 13.5485ZM31.9001 11.5493C31.3398 10.9587 30.6733 10.5069 29.9176 10.2046L28.432 13.9185C28.6528 14.0068 28.8359 14.1312 28.9983 14.3023L31.9001 11.5493ZM29.9626 10.2232C29.2227 9.90611 28.4405 9.75391 27.6367 9.75391V13.7539C27.9267 13.7539 28.1699 13.8068 28.387 13.8998L29.9626 10.2232ZM27.6367 9.75391C26.8327 9.75391 26.0511 9.90611 25.3095 10.2176L26.8584 13.9055C27.0935 13.8068 27.3469 13.7539 27.6367 13.7539V9.75391ZM25.3282 10.2098C24.5826 10.5141 23.9268 10.9658 23.3733 11.5493L26.2751 14.3023C26.4443 14.124 26.6283 13.9995 26.8398 13.9132L25.3282 10.2098ZM23.3723 11.5503C22.8244 12.1286 22.4142 12.8055 22.1252 13.5485L25.8533 14.9983C25.9745 14.6867 26.1209 14.4651 26.2761 14.3013L23.3723 11.5503ZM22.1299 13.5367C21.8185 14.3227 21.6816 15.1591 21.6816 16.0166H25.6816C25.6816 15.5851 25.7499 15.2593 25.8486 15.0102L22.1299 13.5367ZM21.6816 16.0166C21.6816 16.8521 21.8241 17.666 22.1299 18.4379L25.8486 16.9644C25.7443 16.7012 25.6816 16.392 25.6816 16.0166H21.6816ZM22.1299 18.4379C22.4189 19.1672 22.8241 19.8306 23.3546 20.4054L26.2938 17.6923C26.1212 17.5053 25.9698 17.2703 25.8486 16.9644L22.1299 18.4379ZM23.3733 20.4253C23.9074 20.9883 24.5316 21.4377 25.2342 21.7675L26.9338 18.1466C26.6794 18.0271 26.4637 17.871 26.2751 17.6723L23.3733 20.4253ZM25.2785 21.7877C26.0271 22.117 26.8197 22.2793 27.6367 22.2793V18.2793C27.36 18.2793 27.1174 18.2267 26.8895 18.1264L25.2785 21.7877ZM27.6367 22.2793C28.4405 22.2793 29.2227 22.1271 29.9626 21.81L28.387 18.1334C28.1699 18.2264 27.9267 18.2793 27.6367 18.2793V22.2793ZM29.9493 21.8156C30.6792 21.5091 31.3294 21.0704 31.8822 20.5027L29.0163 17.7122C28.8464 17.8867 28.647 18.0241 28.4003 18.1277L29.9493 21.8156ZM31.8822 20.5027C32.4474 19.9222 32.8695 19.2388 33.1628 18.4847L29.4348 17.0349C29.318 17.3354 29.1737 17.5505 29.0163 17.7122L31.8822 20.5027ZM33.151 18.5144C33.4741 17.7214 33.6211 16.8804 33.6211 16.0166H29.6211C29.6211 16.4223 29.5533 16.7435 29.4466 17.0052L33.151 18.5144ZM57.1973 20.6602L59.033 21.454L59.0368 21.445L57.1973 20.6602ZM55.9082 22.5498L54.5068 21.1229L54.5004 21.1292L54.494 21.1356L55.9082 22.5498ZM54.0039 23.8242L53.219 21.9846L53.2101 21.9885L54.0039 23.8242ZM49.5361 23.9121L48.8164 25.7781L48.828 25.7826L48.8398 25.787L49.5361 23.9121ZM47.6758 22.7695L49.0094 21.279L47.6639 20.0752L46.3291 21.2908L47.6758 22.7695ZM45.8301 23.9121L46.5353 25.7837L46.5426 25.7809L46.5498 25.7781L45.8301 23.9121ZM39.458 22.5498L38.0438 23.964L38.0502 23.9704L38.0566 23.9767L39.458 22.5498ZM38.1836 20.6602L36.344 21.445L36.3479 21.454L38.1836 20.6602ZM37.7148 8.34082V6.34082H35.7148V8.34082H37.7148ZM41.7139 8.34082H43.7139V6.34082H41.7139V8.34082ZM41.8604 19.1074L40.0034 19.8502L40.0217 19.8959L40.0422 19.9407L41.8604 19.1074ZM42.2852 19.7373L40.8333 21.1128L40.8704 21.152L40.9097 21.1892L42.2852 19.7373ZM42.915 20.1621L42.0817 21.9802L42.1265 22.0008L42.1723 22.0191L42.915 20.1621ZM44.4678 20.1621L45.2106 22.0191L45.2421 22.0064L45.2733 21.9927L44.4678 20.1621ZM45.1123 19.7373L46.4878 21.1892L46.5074 21.1706L46.5265 21.1515L45.1123 19.7373ZM45.5371 19.1074L43.7065 18.3019L43.6985 18.32L43.691 18.3382L45.5371 19.1074ZM45.6982 8.34082V6.34082H43.6982V8.34082H45.6982ZM49.6826 8.34082H51.6826V6.34082H49.6826V8.34082ZM49.8438 19.1074L48.0131 19.9129L48.0193 19.9269L48.0256 19.9407L49.8438 19.1074ZM50.2686 19.7373L48.8166 21.1128L48.8538 21.152L48.8931 21.1892L50.2686 19.7373ZM50.8984 20.1621L50.0651 21.9802L50.1099 22.0008L50.1557 22.0191L50.8984 20.1621ZM52.4512 20.1621L53.194 22.0191L53.2255 22.0064L53.2566 21.9927L52.4512 20.1621ZM53.5205 19.1074L55.3386 19.9407L55.345 19.9269L55.3511 19.9129L53.5205 19.1074ZM53.6816 8.34082V6.34082H51.6816V8.34082H53.6816ZM57.666 8.34082H59.666V6.34082H57.666V8.34082ZM55.666 18.3311C55.666 18.8899 55.5611 19.3985 55.3577 19.8753L59.0368 21.445C59.4584 20.4569 59.666 19.4128 59.666 18.3311H55.666ZM55.3616 19.8663C55.1487 20.3585 54.8643 20.7718 54.5068 21.1229L57.3096 23.9767C58.0458 23.2536 58.6208 22.4072 59.033 21.454L55.3616 19.8663ZM54.494 21.1356C54.1462 21.4834 53.728 21.7675 53.219 21.9847L54.7888 25.6638C55.7447 25.2559 56.596 24.6905 57.3224 23.964L54.494 21.1356ZM53.2101 21.9885C52.7515 22.1868 52.2469 22.293 51.6748 22.293V26.293C52.7628 26.293 53.811 26.0866 54.7977 25.6599L53.2101 21.9885ZM51.6748 22.293C51.166 22.293 50.6893 22.2069 50.2325 22.0373L48.8398 25.787C49.7502 26.1251 50.6992 26.293 51.6748 26.293V22.293ZM50.2559 22.0461C49.8024 21.8712 49.3894 21.619 49.0094 21.279L46.3422 24.26C47.0755 24.9161 47.9027 25.4257 48.8164 25.7781L50.2559 22.0461ZM46.3291 21.2908C45.9636 21.6237 45.5605 21.8725 45.1103 22.0461L46.5498 25.7781C47.4668 25.4244 48.2942 24.9115 49.0224 24.2482L46.3291 21.2908ZM45.1249 22.0406C44.6863 22.2058 44.2133 22.293 43.6914 22.293V26.293C44.6734 26.293 45.6262 26.1262 46.5353 25.7837L45.1249 22.0406ZM43.6914 22.293C43.1193 22.293 42.6147 22.1868 42.1561 21.9885L40.5685 25.6599C41.5552 26.0866 42.6034 26.293 43.6914 26.293V22.293ZM42.1561 21.9885C41.6532 21.771 41.2259 21.4828 40.8594 21.1229L38.0566 23.9767C38.7839 24.691 39.6261 25.2524 40.5685 25.6599L42.1561 21.9885ZM40.8722 21.1356C40.52 20.7834 40.2354 20.3661 40.0193 19.8663L36.3479 21.454C36.7568 22.3996 37.3218 23.242 38.0438 23.964L40.8722 21.1356ZM40.0232 19.8753C39.8197 19.3985 39.7148 18.8899 39.7148 18.3311H35.7148C35.7148 19.4128 35.9225 20.4569 36.344 21.445L40.0232 19.8753ZM39.7148 18.3311V8.34082H35.7148V18.3311H39.7148ZM37.7148 10.3408H41.7139V6.34082H37.7148V10.3408ZM39.7139 8.34082V18.3311H43.7139V8.34082H39.7139ZM39.7139 18.3311C39.7139 18.8486 39.8075 19.3604 40.0034 19.8502L43.7173 18.3646C43.7166 18.3629 43.7163 18.3618 43.7158 18.3594C43.7153 18.3569 43.7139 18.3481 43.7139 18.3311H39.7139ZM40.0422 19.9407C40.2403 20.3729 40.5051 20.7664 40.8333 21.1128L43.7371 18.3618C43.7136 18.3371 43.6952 18.3107 43.6785 18.2741L40.0422 19.9407ZM40.9097 21.1892C41.256 21.5173 41.6495 21.7821 42.0817 21.9802L43.7483 18.344C43.7118 18.3272 43.6854 18.3088 43.6606 18.2854L40.9097 21.1892ZM42.1723 22.0191C42.662 22.215 43.1739 22.3086 43.6914 22.3086V18.3086C43.6744 18.3086 43.6656 18.3071 43.6631 18.3066C43.6607 18.3062 43.6595 18.3058 43.6578 18.3052L42.1723 22.0191ZM43.6914 22.3086C44.209 22.3086 44.7208 22.215 45.2106 22.0191L43.725 18.3052C43.7233 18.3058 43.7222 18.3062 43.7198 18.3066C43.7172 18.3071 43.7085 18.3086 43.6914 18.3086V22.3086ZM45.2733 21.9927C45.7185 21.7968 46.1282 21.5299 46.4878 21.1892L43.7368 18.2854C43.7253 18.2963 43.7054 18.3125 43.6623 18.3315L45.2733 21.9927ZM46.5265 21.1515C46.8905 20.7876 47.1818 20.3603 47.3833 19.8767L43.691 18.3382C43.6918 18.3361 43.6931 18.3335 43.6947 18.3304C43.6963 18.3274 43.698 18.3247 43.6995 18.3224C43.7029 18.3174 43.7035 18.3177 43.6981 18.3231L46.5265 21.1515ZM47.3677 19.9129C47.5897 19.4084 47.6982 18.8747 47.6982 18.3311H43.6982C43.6982 18.3359 43.6979 18.3326 43.6997 18.3238C43.7016 18.3148 43.7043 18.3069 43.7065 18.3019L47.3677 19.9129ZM47.6982 18.3311V8.34082H43.6982V18.3311H47.6982ZM45.6982 10.3408H49.6826V6.34082H45.6982V10.3408ZM47.6826 8.34082V18.3311H51.6826V8.34082H47.6826ZM47.6826 18.3311C47.6826 18.8747 47.7912 19.4084 48.0131 19.9129L51.6744 18.3019C51.6765 18.3069 51.6793 18.3148 51.6812 18.3238C51.683 18.3326 51.6826 18.3359 51.6826 18.3311H47.6826ZM48.0256 19.9407C48.2237 20.3729 48.4885 20.7664 48.8166 21.1128L51.7205 18.3618C51.697 18.3371 51.6786 18.3107 51.6619 18.2741L48.0256 19.9407ZM48.8931 21.1892C49.2394 21.5173 49.6329 21.7821 50.0651 21.9802L51.7317 18.344C51.6952 18.3272 51.6688 18.3088 51.644 18.2854L48.8931 21.1892ZM50.1557 22.0191C50.6454 22.215 51.1573 22.3086 51.6748 22.3086V18.3086C51.6578 18.3086 51.649 18.3071 51.6465 18.3066C51.6441 18.3062 51.6429 18.3058 51.6412 18.3052L50.1557 22.0191ZM51.6748 22.3086C52.1924 22.3086 52.7042 22.215 53.194 22.0191L51.7084 18.3052C51.7067 18.3058 51.7055 18.3062 51.7032 18.3066C51.7006 18.3071 51.6919 18.3086 51.6748 18.3086V22.3086ZM53.2566 21.9927C53.7111 21.7928 54.1317 21.5151 54.4953 21.1515L51.6668 18.3231C51.6712 18.3187 51.6742 18.3167 51.6735 18.3172C51.6725 18.3179 51.6643 18.3233 51.6457 18.3315L53.2566 21.9927ZM54.4953 21.1515C54.8459 20.8009 55.1304 20.3951 55.3386 19.9407L51.7024 18.2741C51.6958 18.2885 51.6873 18.3026 51.6668 18.3231L54.4953 21.1515ZM55.3511 19.9129C55.5731 19.4084 55.6816 18.8747 55.6816 18.3311H51.6816C51.6816 18.3359 51.6813 18.3326 51.6831 18.3238C51.685 18.3148 51.6877 18.3069 51.6899 18.3019L55.3511 19.9129ZM55.6816 18.3311V8.34082H51.6816V18.3311H55.6816ZM53.6816 10.3408H57.666V6.34082H53.6816V10.3408ZM55.666 8.34082V18.3311H59.666V8.34082H55.666ZM73.3545 15.6064V17.6064H75.3545V15.6064H73.3545ZM73.0176 9.77637L71.1704 10.5431L71.1792 10.5644L71.1885 10.5854L73.0176 9.77637ZM70.7764 7.53516L69.9674 9.36423L69.9884 9.37353L70.0096 9.38234L70.7764 7.53516ZM67.5098 7.53516L68.289 9.37709L68.2975 9.37351L68.306 9.36985L67.5098 7.53516ZM65.2686 9.77637L63.4339 8.98018L63.4302 8.98862L63.4266 8.99709L65.2686 9.77637ZM64.9463 15.6064H62.9463V17.6064H64.9463V15.6064ZM77.5586 24V26H79.5586V24H77.5586ZM73.3545 24H71.3545V26H73.3545V24ZM73.3545 19.7959H75.3545V17.7959H73.3545V19.7959ZM64.9463 19.7959V17.7959H62.9463V19.7959H64.9463ZM64.9463 24V26H66.9463V24H64.9463ZM60.7568 24H58.7568V26H60.7568V24ZM61.416 8.13574L63.2516 8.92997L63.2543 8.92358L61.416 8.13574ZM63.2031 5.45508L61.7889 4.04084L61.7798 4.05002L63.2031 5.45508ZM65.8691 3.65332L65.0813 1.81502L65.0749 1.81778L65.8691 3.65332ZM72.417 3.65332L71.6228 5.48887L71.6292 5.49161L72.417 3.65332ZM76.8994 8.13574L75.0611 8.92359L75.0639 8.92997L76.8994 8.13574ZM75.3545 15.6064V11.4023H71.3545V15.6064H75.3545ZM75.3545 11.4023C75.3545 10.5583 75.1882 9.73963 74.8466 8.96736L71.1885 10.5854C71.2961 10.8287 71.3545 11.0941 71.3545 11.4023H75.3545ZM74.8648 9.00961C74.5536 8.2599 74.1119 7.5882 73.5382 7.0145L70.7098 9.84292C70.8978 10.0309 71.0519 10.2577 71.1704 10.5431L74.8648 9.00961ZM73.5382 7.0145C72.9645 6.44079 72.2928 5.99917 71.5431 5.68797L70.0096 9.38234C70.2951 9.50083 70.5218 9.65491 70.7098 9.84292L73.5382 7.0145ZM71.5854 5.70609C70.8131 5.3645 69.9945 5.19824 69.1504 5.19824V9.19824C69.4587 9.19824 69.724 9.25659 69.9674 9.36423L71.5854 5.70609ZM69.1504 5.19824C68.3063 5.19824 67.4878 5.36446 66.7136 5.70047L68.306 9.36985C68.5668 9.25663 68.8422 9.19824 69.1504 9.19824V5.19824ZM66.7305 5.69322C65.9912 6.00599 65.3299 6.44715 64.7625 7.0145L67.591 9.84292C67.7853 9.64856 68.0127 9.49401 68.289 9.37709L66.7305 5.69322ZM64.7625 7.0145C64.1956 7.58149 63.7537 8.24312 63.4339 8.98018L67.1032 10.5726C67.2326 10.2745 67.3962 10.0377 67.591 9.84292L64.7625 7.0145ZM63.4266 8.99709C63.1028 9.76251 62.9463 10.5707 62.9463 11.4023H66.9463C66.9463 11.0816 67.0046 10.8058 67.1105 10.5556L63.4266 8.99709ZM62.9463 11.4023V15.6064H66.9463V11.4023H62.9463ZM64.9463 17.6064H73.3545V13.6064H64.9463V17.6064ZM77.5586 22H73.3545V26H77.5586V22ZM75.3545 24V19.7959H71.3545V24H75.3545ZM73.3545 17.7959H64.9463V21.7959H73.3545V17.7959ZM62.9463 19.7959V24H66.9463V19.7959H62.9463ZM64.9463 22H60.7568V26H64.9463V22ZM62.7568 24V11.4023H58.7568V24H62.7568ZM62.7568 11.4023C62.7568 10.4995 62.926 9.68236 63.2516 8.92997L59.5805 7.34152C59.0271 8.62038 58.7568 9.981 58.7568 11.4023H62.7568ZM63.2543 8.92358C63.5995 8.1182 64.0576 7.43639 64.6264 6.86014L61.7798 4.05002C60.8448 4.99721 60.1115 6.10251 59.5777 7.3479L63.2543 8.92358ZM64.6173 6.86929C65.1959 6.29073 65.8727 5.83099 66.6634 5.48886L65.0749 1.81778C63.8344 2.35456 62.7338 3.09599 61.7889 4.04086L64.6173 6.86929ZM66.657 5.49161C67.423 5.1633 68.2476 4.99414 69.1504 4.99414V0.994141C67.729 0.994141 66.366 1.26443 65.0813 1.81503L66.657 5.49161ZM69.1504 4.99414C70.0533 4.99414 70.8704 5.16331 71.6228 5.48886L73.2112 1.81778C71.9324 1.26443 70.5717 0.994141 69.1504 0.994141V4.99414ZM71.6292 5.49161C72.4292 5.83447 73.1081 6.2939 73.6834 6.86929L76.5119 4.04086C75.5638 3.09282 74.4556 2.35108 73.2048 1.81503L71.6292 5.49161ZM73.6834 6.86929C74.2588 7.44468 74.7183 8.12357 75.0611 8.92358L78.7377 7.3479C78.2017 6.09713 77.4599 4.98891 76.5119 4.04086L73.6834 6.86929ZM75.0639 8.92997C75.3894 9.68236 75.5586 10.4995 75.5586 11.4023H79.5586C79.5586 9.981 79.2883 8.62038 78.735 7.34152L75.0639 8.92997ZM75.5586 11.4023V24H79.5586V11.4023H75.5586ZM84.7803 24V26H86.7803V24H84.7803ZM80.7812 24H78.7812V26H80.7812V24ZM80.7812 8.31152V6.31152H78.7812V8.31152H80.7812ZM81.748 8.31152L83.3798 7.15513L82.782 6.31152H81.748V8.31152ZM83.0664 10.1719L81.4346 11.3283L82.7405 13.1711L84.4118 11.6518L83.0664 10.1719ZM85.2637 8.82422L85.9757 10.6932L85.9853 10.6895L85.995 10.6857L85.2637 8.82422ZM91.3428 8.34082H93.3428V6.34082H91.3428V8.34082ZM91.3428 12.3252V14.3252H93.3428V12.3252H91.3428ZM86.626 12.5596L85.8499 10.7163L86.626 12.5596ZM84.7803 22H80.7812V26H84.7803V22ZM82.7812 24V8.31152H78.7812V24H82.7812ZM80.7812 10.3115H81.748V6.31152H80.7812V10.3115ZM80.1163 9.46791L81.4346 11.3283L84.6982 9.01548L83.3798 7.15513L80.1163 9.46791ZM84.4118 11.6518C84.8699 11.2353 85.3871 10.9174 85.9757 10.6932L84.5517 6.95524C83.4996 7.35602 82.552 7.93659 81.7211 8.69199L84.4118 11.6518ZM85.995 10.6857C86.583 10.4547 87.1846 10.3408 87.8125 10.3408V6.34082C86.6826 6.34082 85.585 6.54919 84.5324 6.96272L85.995 10.6857ZM87.8125 10.3408H91.3428V6.34082H87.8125V10.3408ZM89.3428 8.34082V12.3252H93.3428V8.34082H89.3428ZM91.3428 10.3252H87.8125V14.3252H91.3428V10.3252ZM87.8125 10.3252C87.1377 10.3252 86.4772 10.4522 85.8499 10.7163L87.4021 14.4028C87.517 14.3545 87.6475 14.3252 87.8125 14.3252V10.3252ZM85.8499 10.7163C85.2503 10.9687 84.7089 11.326 84.245 11.7899L87.0734 14.6183C87.1564 14.5354 87.2594 14.4629 87.4021 14.4028L85.8499 10.7163ZM84.245 11.7899C83.7811 12.2538 83.4238 12.7953 83.1714 13.3948L86.8579 14.947C86.918 14.8044 86.9904 14.7013 87.0734 14.6183L84.245 11.7899ZM83.1714 13.3948C82.9073 14.0221 82.7803 14.6826 82.7803 15.3574H86.7803C86.7803 15.1924 86.8095 15.0619 86.8579 14.947L83.1714 13.3948ZM82.7803 15.3574V24H86.7803V15.3574H82.7803ZM98.3447 23.458L97.5442 25.2908L97.5531 25.2947L97.562 25.2985L98.3447 23.458ZM96.1035 21.9492L94.6785 23.3526L94.6893 23.3635L94.7001 23.3742L96.1035 21.9492ZM94.5947 19.708L92.7543 20.4907L92.758 20.4997L92.7619 20.5085L94.5947 19.708ZM94.0527 12.3252H96.0527V10.3252H94.0527V12.3252ZM92.1045 12.3252H90.1045V14.3252H92.1045V12.3252ZM92.1045 8.34082V6.34082H90.1045V8.34082H92.1045ZM94.0527 8.34082V10.3408H96.0527V8.34082H94.0527ZM94.0527 2.07129V0.0712891H92.0527V2.07129H94.0527ZM98.0371 2.07129H100.037V0.0712891H98.0371V2.07129ZM98.0371 8.34082H96.0371V10.3408H98.0371V8.34082ZM104.102 8.34082H106.102V6.34082H104.102V8.34082ZM104.102 12.3252V14.3252H106.102V12.3252H104.102ZM98.0371 12.3252V10.3252H96.0371V12.3252H98.0371ZM98.2715 18.1699L96.4282 18.946L96.4319 18.9549L96.4358 18.9637L98.2715 18.1699ZM98.916 19.1221L100.33 17.7079L98.916 19.1221ZM99.8828 19.7812L99.0661 21.6069L99.0863 21.6159L99.1067 21.6245L99.8828 19.7812ZM104.102 20.0156H106.102V18.0156H104.102V20.0156ZM104.102 24V26H106.102V24H104.102ZM101.069 22C100.359 22 99.7179 21.8687 99.1275 21.6175L97.562 25.2985C98.6708 25.77 99.8465 26 101.069 26V22ZM99.1453 21.6252C98.5142 21.3496 97.9727 20.983 97.5069 20.5243L94.7001 23.3742C95.5233 24.1849 96.4761 24.8243 97.5442 25.2908L99.1453 21.6252ZM97.5285 20.5458C97.0697 20.08 96.7032 19.5386 96.4275 18.9075L92.7619 20.5085C93.2285 21.5767 93.8678 22.5294 94.6785 23.3526L97.5285 20.5458ZM96.4352 18.9253C96.1841 18.3348 96.0527 17.6941 96.0527 16.9834H92.0527C92.0527 18.2063 92.2827 19.382 92.7543 20.4907L96.4352 18.9253ZM96.0527 16.9834V12.3252H92.0527V16.9834H96.0527ZM94.0527 10.3252H92.1045V14.3252H94.0527V10.3252ZM94.1045 12.3252V8.34082H90.1045V12.3252H94.1045ZM92.1045 10.3408H94.0527V6.34082H92.1045V10.3408ZM96.0527 8.34082V2.07129H92.0527V8.34082H96.0527ZM94.0527 4.07129H98.0371V0.0712891H94.0527V4.07129ZM96.0371 2.07129V8.34082H100.037V2.07129H96.0371ZM98.0371 10.3408H104.102V6.34082H98.0371V10.3408ZM102.102 8.34082V12.3252H106.102V8.34082H102.102ZM104.102 10.3252H98.0371V14.3252H104.102V10.3252ZM96.0371 12.3252V16.9834H100.037V12.3252H96.0371ZM96.0371 16.9834C96.0371 17.6582 96.1641 18.3187 96.4282 18.946L100.115 17.3938C100.066 17.2789 100.037 17.1484 100.037 16.9834H96.0371ZM96.4358 18.9637C96.6903 19.5523 97.0467 20.0812 97.5018 20.5363L100.33 17.7079C100.238 17.616 100.165 17.5102 100.107 17.3761L96.4358 18.9637ZM97.5018 20.5363C97.9564 20.9909 98.484 21.3465 99.0661 21.6069L100.7 17.9556C100.539 17.884 100.423 17.8001 100.33 17.7079L97.5018 20.5363ZM99.1067 21.6245C99.734 21.8886 100.395 22.0156 101.069 22.0156V18.0156C100.904 18.0156 100.774 17.9864 100.659 17.938L99.1067 21.6245ZM101.069 22.0156H104.102V18.0156H101.069V22.0156ZM102.102 20.0156V24H106.102V20.0156H102.102ZM104.102 22H101.069V26H104.102V22ZM110.854 5.08887L109.034 4.26126L109.023 4.28438L109.013 4.30777L110.854 5.08887ZM110.283 5.93848L111.668 7.38125L111.683 7.36712L111.697 7.35269L110.283 5.93848ZM109.419 6.50977L110.2 8.35093L110.213 8.34536L110.226 8.3396L109.419 6.50977ZM107.324 6.50977L106.497 8.3305L106.529 8.34541L106.563 8.35912L107.324 6.50977ZM106.475 5.93848L105.032 7.32354L105.06 7.35298L105.09 7.38125L106.475 5.93848ZM105.903 5.08887L104.062 5.86997L104.072 5.89335L104.083 5.91647L105.903 5.08887ZM105.903 3.02344L104.073 2.21616L104.068 2.22921L104.062 2.24234L105.903 3.02344ZM107.324 1.60254L108.105 3.4437L108.118 3.43813L108.131 3.43237L107.324 1.60254ZM109.419 1.60254L108.591 3.42327L108.624 3.43818L108.657 3.4519L109.419 1.60254ZM110.283 2.17383L108.869 3.58804L108.883 3.60247L108.898 3.6166L110.283 2.17383ZM110.854 3.02344L109.005 3.78494L109.019 3.81825L109.034 3.85104L110.854 3.02344ZM110.386 24V26H112.386V24H110.386ZM106.357 24H104.357V26H106.357V24ZM106.357 8.31152V6.31152H104.357V8.31152H106.357ZM110.386 8.31152H112.386V6.31152H110.386V8.31152ZM109.074 4.04883C109.074 4.14852 109.056 4.21144 109.034 4.26126L112.675 5.91647C112.946 5.32176 113.074 4.69132 113.074 4.04883H109.074ZM109.013 4.30777C108.976 4.3969 108.929 4.46435 108.869 4.52426L111.697 7.35269C112.126 6.92432 112.46 6.42536 112.696 5.86997L109.013 4.30777ZM108.898 4.4957C108.834 4.55695 108.746 4.62088 108.612 4.67993L110.226 8.3396C110.756 8.10568 111.244 7.78875 111.668 7.38125L108.898 4.4957ZM108.638 4.6686C108.577 4.69429 108.498 4.71484 108.379 4.71484V8.71484C109.002 8.71484 109.616 8.59868 110.2 8.35093L108.638 4.6686ZM108.379 4.71484C108.26 4.71484 108.168 4.69432 108.086 4.66041L106.563 8.35912C107.144 8.59865 107.755 8.71484 108.379 8.71484V4.71484ZM108.152 4.68903C108.026 4.63177 107.933 4.56637 107.86 4.4957L105.09 7.38125C105.504 7.77933 105.978 8.09479 106.497 8.3305L108.152 4.68903ZM107.917 4.55341C107.847 4.4798 107.781 4.38724 107.724 4.26126L104.083 5.91647C104.318 6.43503 104.634 6.90887 105.032 7.32354L107.917 4.55341ZM107.744 4.30777C107.719 4.24721 107.698 4.1679 107.698 4.04883H103.698C103.698 4.67194 103.814 5.28599 104.062 5.86997L107.744 4.30777ZM107.698 4.04883C107.698 3.94706 107.716 3.87173 107.744 3.80454L104.062 2.24234C103.817 2.81968 103.698 3.42794 103.698 4.04883H107.698ZM107.733 3.83072C107.789 3.70344 107.845 3.63165 107.889 3.58804L105.06 0.759615C104.635 1.18475 104.31 1.67937 104.073 2.21616L107.733 3.83072ZM107.889 3.58804C107.949 3.52813 108.016 3.48152 108.105 3.4437L106.543 -0.238625C105.988 -0.00300164 105.489 0.331246 105.06 0.759615L107.889 3.58804ZM108.131 3.43237C108.203 3.40067 108.279 3.38281 108.379 3.38281V-0.617188C107.736 -0.617188 107.109 -0.488562 106.517 -0.227297L108.131 3.43237ZM108.379 3.38281C108.479 3.38281 108.542 3.40063 108.591 3.42327L110.247 -0.218194C109.652 -0.488519 109.021 -0.617188 108.379 -0.617188V3.38281ZM108.657 3.4519C108.755 3.49218 108.819 3.53808 108.869 3.58804L111.697 0.759615C111.259 0.321294 110.747 -0.013661 110.18 -0.246817L108.657 3.4519ZM108.898 3.6166C108.93 3.647 108.968 3.69384 109.005 3.78494L112.704 2.26194C112.468 1.68898 112.125 1.1694 111.668 0.731053L108.898 3.6166ZM109.034 3.85104C109.06 3.90791 109.074 3.96691 109.074 4.04883H113.074C113.074 3.40809 112.942 2.7835 112.675 2.19583L109.034 3.85104ZM110.386 22H106.357V26H110.386V22ZM108.357 24V8.31152H104.357V24H108.357ZM106.357 10.3115H110.386V6.31152H106.357V10.3115ZM108.386 8.31152V24H112.386V8.31152H108.386ZM112.92 24H110.92V26H112.92V24ZM112.92 20.0156V18.0156H110.92V20.0156H112.92ZM114.37 16.8662L112.941 18.2651L112.948 18.2728L112.956 18.2804L114.37 16.8662ZM113.301 15.2695L111.456 16.043L111.462 16.0556L111.467 16.0681L113.301 15.2695ZM113.301 11.373L111.467 10.5745L111.462 10.587L111.456 10.5996L113.301 11.373ZM115.952 8.73633L116.726 10.5807L116.738 10.5754L116.751 10.57L115.952 8.73633ZM126.001 8.34082H128.001V6.34082H126.001V8.34082ZM126.001 12.3252V14.3252H128.001V12.3252H126.001ZM117.197 14.0537L115.749 15.433L115.766 15.4507L115.783 15.4679L117.197 14.0537ZM123.994 14.6982L123.272 16.5634L123.285 16.5685L123.299 16.5734L123.994 14.6982ZM126.646 20.9678L128.474 21.7773L128.479 21.7663L126.646 20.9678ZM125.576 22.5498L126.99 23.964L126.998 23.9564L127.006 23.9487L125.576 22.5498ZM123.994 23.6191L124.768 25.4635L124.78 25.4583L124.793 25.4528L123.994 23.6191ZM122.061 22H112.92V26H122.061V22ZM114.92 24V20.0156H110.92V24H114.92ZM112.92 22.0156H122.061V18.0156H112.92V22.0156ZM122.061 22.0156C122.87 22.0156 123.612 21.703 124.178 21.1369L121.349 18.3084C121.42 18.2377 121.528 18.1564 121.672 18.0962C121.817 18.0359 121.954 18.0156 122.061 18.0156V22.0156ZM124.178 21.1369C124.744 20.5708 125.057 19.8294 125.057 19.0195H121.057C121.057 18.9127 121.077 18.776 121.137 18.6312C121.197 18.4868 121.279 18.3792 121.349 18.3084L124.178 21.1369ZM125.057 19.0195C125.057 18.2528 124.738 17.1583 123.584 16.639L121.943 20.2867C121.643 20.1517 121.377 19.9108 121.214 19.5995C121.068 19.3222 121.057 19.0938 121.057 19.0195H125.057ZM123.584 16.639C123.07 16.4076 122.542 16.3311 122.061 16.3311V20.3311C122.126 20.3311 122.067 20.3424 121.943 20.2867L123.584 16.639ZM122.061 16.3311H117.9V20.3311H122.061V16.3311ZM117.9 16.3311C117.468 16.3311 117.092 16.2504 116.751 16.1019L115.154 19.7692C116.024 20.148 116.946 20.3311 117.9 20.3311V16.3311ZM116.751 16.1019C116.366 15.9342 116.049 15.7171 115.784 15.452L112.956 18.2804C113.589 18.9138 114.328 19.4095 115.154 19.7692L116.751 16.1019ZM115.799 15.4673C115.525 15.1871 115.304 14.8598 115.134 14.471L111.467 16.0681C111.825 16.8902 112.317 17.6273 112.941 18.2651L115.799 15.4673ZM115.145 14.4961C115 14.1491 114.92 13.7642 114.92 13.3213H110.92C110.92 14.2651 111.094 15.179 111.456 16.043L115.145 14.4961ZM114.92 13.3213C114.92 12.8784 115 12.4935 115.145 12.1465L111.456 10.5996C111.094 11.4636 110.92 12.3775 110.92 13.3213H114.92ZM115.134 12.1716C115.302 11.7866 115.519 11.4703 115.784 11.2052L112.956 8.3768C112.323 9.01014 111.827 9.74858 111.467 10.5745L115.134 12.1716ZM115.784 11.2052C116.044 10.9458 116.351 10.7376 116.726 10.5807L115.179 6.89194C114.342 7.24285 113.595 7.73778 112.956 8.3768L115.784 11.2052ZM116.751 10.57C117.092 10.4215 117.468 10.3408 117.9 10.3408V6.34082C116.946 6.34082 116.024 6.52383 115.154 6.90266L116.751 10.57ZM117.9 10.3408H126.001V6.34082H117.9V10.3408ZM124.001 8.34082V12.3252H128.001V8.34082H124.001ZM126.001 10.3252H117.9V14.3252H126.001V10.3252ZM117.9 10.3252C117.09 10.3252 116.349 10.6378 115.783 11.204L118.611 14.0324C118.541 14.1031 118.433 14.1844 118.289 14.2446C118.144 14.3049 118.007 14.3252 117.9 14.3252V10.3252ZM115.783 11.204C115.217 11.7701 114.904 12.5114 114.904 13.3213H118.904C118.904 13.4281 118.884 13.5649 118.824 13.7097C118.764 13.8541 118.682 13.9616 118.611 14.0324L115.783 11.204ZM114.904 13.3213C114.904 14.118 115.2 14.8561 115.749 15.433L118.646 12.6744C118.71 12.7418 118.782 12.8422 118.834 12.974C118.887 13.1059 118.904 13.2282 118.904 13.3213H114.904ZM115.783 15.4679C116.349 16.034 117.09 16.3467 117.9 16.3467V12.3467C118.007 12.3467 118.144 12.3669 118.289 12.4273C118.433 12.4875 118.541 12.5688 118.611 12.6395L115.783 15.4679ZM117.9 16.3467H122.061V12.3467H117.9V16.3467ZM122.061 16.3467C122.51 16.3467 122.909 16.4228 123.272 16.5634L124.716 12.8331C123.868 12.5049 122.978 12.3467 122.061 12.3467V16.3467ZM123.299 16.5734C123.678 16.7141 123.98 16.9012 124.228 17.1274L126.925 14.1734C126.274 13.5793 125.521 13.1316 124.69 12.8231L123.299 16.5734ZM124.228 17.1274C124.47 17.3488 124.67 17.6199 124.827 17.9621L128.464 16.2976C128.093 15.4875 127.581 14.7723 126.925 14.1734L124.228 17.1274ZM124.827 17.9621C124.962 18.257 125.041 18.6002 125.041 19.0195H129.041C129.041 18.0717 128.857 17.1551 128.464 16.2976L124.827 17.9621ZM125.041 19.0195C125.041 19.4521 124.96 19.8282 124.812 20.1692L128.479 21.7663C128.858 20.8964 129.041 19.9737 129.041 19.0195H125.041ZM124.817 20.1583C124.648 20.5384 124.426 20.8654 124.147 21.1509L127.006 23.9487C127.625 23.3163 128.115 22.5886 128.474 21.7773L124.817 20.1583ZM124.162 21.1356C123.897 21.4007 123.581 21.6178 123.196 21.7855L124.793 25.4528C125.619 25.0931 126.357 24.5974 126.99 23.964L124.162 21.1356ZM123.221 21.7748C122.87 21.9217 122.49 22 122.061 22V26C122.999 26 123.907 25.8244 124.768 25.4635L123.221 21.7748ZM134.321 23.458L133.521 25.2908L133.53 25.2947L133.539 25.2985L134.321 23.458ZM132.08 21.9492L130.655 23.3526L130.666 23.3635L130.677 23.3742L132.08 21.9492ZM130.571 19.708L128.731 20.4907L128.735 20.4997L128.738 20.5085L130.571 19.708ZM130.029 12.3252H132.029V10.3252H130.029V12.3252ZM128.081 12.3252H126.081V14.3252H128.081V12.3252ZM128.081 8.34082V6.34082H126.081V8.34082H128.081ZM130.029 8.34082V10.3408H132.029V8.34082H130.029ZM130.029 2.07129V0.0712891H128.029V2.07129H130.029ZM134.014 2.07129H136.014V0.0712891H134.014V2.07129ZM134.014 8.34082H132.014V10.3408H134.014V8.34082ZM140.078 8.34082H142.078V6.34082H140.078V8.34082ZM140.078 12.3252V14.3252H142.078V12.3252H140.078ZM134.014 12.3252V10.3252H132.014V12.3252H134.014ZM134.248 18.1699L132.405 18.946L132.409 18.9549L132.412 18.9637L134.248 18.1699ZM134.893 19.1221L136.307 17.7079L134.893 19.1221ZM135.859 19.7812L135.043 21.6069L135.063 21.6159L135.083 21.6245L135.859 19.7812ZM140.078 20.0156H142.078V18.0156H140.078V20.0156ZM140.078 24V26H142.078V24H140.078ZM137.046 22C136.335 22 135.694 21.8687 135.104 21.6175L133.539 25.2985C134.647 25.77 135.823 26 137.046 26V22ZM135.122 21.6252C134.491 21.3496 133.949 20.983 133.483 20.5243L130.677 23.3742C131.5 24.1849 132.453 24.8243 133.521 25.2908L135.122 21.6252ZM133.505 20.5458C133.046 20.08 132.68 19.5386 132.404 18.9075L128.738 20.5085C129.205 21.5767 129.844 22.5294 130.655 23.3526L133.505 20.5458ZM132.412 18.9253C132.161 18.3348 132.029 17.6941 132.029 16.9834H128.029C128.029 18.2063 128.259 19.382 128.731 20.4907L132.412 18.9253ZM132.029 16.9834V12.3252H128.029V16.9834H132.029ZM130.029 10.3252H128.081V14.3252H130.029V10.3252ZM130.081 12.3252V8.34082H126.081V12.3252H130.081ZM128.081 10.3408H130.029V6.34082H128.081V10.3408ZM132.029 8.34082V2.07129H128.029V8.34082H132.029ZM130.029 4.07129H134.014V0.0712891H130.029V4.07129ZM132.014 2.07129V8.34082H136.014V2.07129H132.014ZM134.014 10.3408H140.078V6.34082H134.014V10.3408ZM138.078 8.34082V12.3252H142.078V8.34082H138.078ZM140.078 10.3252H134.014V14.3252H140.078V10.3252ZM132.014 12.3252V16.9834H136.014V12.3252H132.014ZM132.014 16.9834C132.014 17.6582 132.141 18.3187 132.405 18.946L136.091 17.3938C136.043 17.2789 136.014 17.1484 136.014 16.9834H132.014ZM132.412 18.9637C132.667 19.5523 133.023 20.0812 133.478 20.5363L136.307 17.7079C136.215 17.616 136.142 17.5102 136.084 17.3761L132.412 18.9637ZM133.478 20.5363C133.933 20.9909 134.461 21.3465 135.043 21.6069L136.676 17.9556C136.516 17.884 136.399 17.8001 136.307 17.7079L133.478 20.5363ZM135.083 21.6245C135.711 21.8886 136.371 22.0156 137.046 22.0156V18.0156C136.881 18.0156 136.75 17.9864 136.635 17.938L135.083 21.6245ZM137.046 22.0156H140.078V18.0156H137.046V22.0156ZM138.078 20.0156V24H142.078V20.0156H138.078ZM140.078 22H137.046V26H140.078V22ZM146.333 24V26H148.333V24H146.333ZM142.334 24H140.334V26H142.334V24ZM142.334 8.31152V6.31152H140.334V8.31152H142.334ZM143.301 8.31152L144.933 7.15513L144.335 6.31152H143.301V8.31152ZM144.619 10.1719L142.987 11.3283L144.293 13.1711L145.964 11.6518L144.619 10.1719ZM146.816 8.82422L147.528 10.6932L147.538 10.6895L147.548 10.6857L146.816 8.82422ZM152.896 8.34082H154.896V6.34082H152.896V8.34082ZM152.896 12.3252V14.3252H154.896V12.3252H152.896ZM148.179 12.5596L147.403 10.7163L148.179 12.5596ZM146.333 22H142.334V26H146.333V22ZM144.334 24V8.31152H140.334V24H144.334ZM142.334 10.3115H143.301V6.31152H142.334V10.3115ZM141.669 9.46791L142.987 11.3283L146.251 9.01548L144.933 7.15513L141.669 9.46791ZM145.964 11.6518C146.423 11.2353 146.94 10.9174 147.528 10.6932L146.104 6.95524C145.052 7.35602 144.105 7.93659 143.274 8.69199L145.964 11.6518ZM147.548 10.6857C148.136 10.4547 148.737 10.3408 149.365 10.3408V6.34082C148.235 6.34082 147.138 6.54919 146.085 6.96272L147.548 10.6857ZM149.365 10.3408H152.896V6.34082H149.365V10.3408ZM150.896 8.34082V12.3252H154.896V8.34082H150.896ZM152.896 10.3252H149.365V14.3252H152.896V10.3252ZM149.365 10.3252C148.69 10.3252 148.03 10.4522 147.403 10.7163L148.955 14.4028C149.07 14.3545 149.2 14.3252 149.365 14.3252V10.3252ZM147.403 10.7163C146.803 10.9687 146.262 11.326 145.798 11.7899L148.626 14.6183C148.709 14.5354 148.812 14.4629 148.955 14.4028L147.403 10.7163ZM145.798 11.7899C145.334 12.2538 144.977 12.7953 144.724 13.3948L148.411 14.947C148.471 14.8044 148.543 14.7013 148.626 14.6183L145.798 11.7899ZM144.724 13.3948C144.46 14.0221 144.333 14.6826 144.333 15.3574H148.333C148.333 15.1924 148.362 15.0619 148.411 14.947L144.724 13.3948ZM144.333 15.3574V24H148.333V15.3574H144.333ZM158.418 29.9766H156.418V31.9482L158.389 31.9764L158.418 29.9766ZM158.418 25.9482L158.444 23.9484L156.418 23.9218V25.9482H158.418ZM160.645 25.9775L160.618 27.9774L160.631 27.9775H160.645V25.9775ZM162.769 25.2598L161.601 23.6357L161.589 23.6446L161.577 23.6536L162.769 25.2598ZM163.589 24.4541L162.007 23.2298L161.998 23.2419L161.989 23.2541L163.589 24.4541ZM164.16 23.458L166.014 24.2094L167.826 19.7393L163.382 21.6155L164.16 23.458ZM162.812 24.0146L162.063 22.1604L162.056 22.1633L162.049 22.1661L162.812 24.0146ZM156.484 22.3301L155.07 23.7443L155.081 23.7552L155.092 23.7659L156.484 22.3301ZM154.976 20.0303L153.117 20.7696L153.122 20.7817L153.127 20.7938L154.976 20.0303ZM154.434 8.31152V6.31152H152.434V8.31152H154.434ZM158.418 8.31152H160.418V6.31152H158.418V8.31152ZM158.652 18.4482L156.778 19.1457L156.788 19.1723L156.798 19.1986L158.652 18.4482ZM159.312 19.4883L157.873 20.8775L157.885 20.8901L157.897 20.9025L159.312 19.4883ZM160.264 20.1035L159.556 21.9741L159.564 21.9772L159.572 21.9802L160.264 20.1035ZM162.607 20.0303L163.521 21.8094L163.53 21.8048L163.539 21.8001L162.607 20.0303ZM164.219 18.2139L166.076 18.9566L166.079 18.9488L166.082 18.941L164.219 18.2139ZM164.453 8.31152V6.31152H162.453V8.31152H164.453ZM168.481 8.31152H170.481V6.31152H168.481V8.31152ZM168.481 22.0225L170.481 22.0402L170.481 22.0313V22.0225H168.481ZM167.837 25.1279L166.002 24.3312L167.837 25.1279ZM166.108 27.6621L164.704 26.2384L164.694 26.2479L166.108 27.6621ZM160.469 30.0059L160.44 32.0057L160.454 32.0059H160.469V30.0059ZM160.418 29.9766V25.9482H156.418V29.9766H160.418ZM158.392 27.9481L160.618 27.9774L160.671 23.9777L158.444 23.9484L158.392 27.9481ZM160.645 27.9775C161.256 27.9775 161.857 27.8773 162.435 27.674L161.109 23.9002C160.965 23.9508 160.814 23.9775 160.645 23.9775V27.9775ZM162.435 27.674C162.983 27.4816 163.494 27.2121 163.96 26.866L161.577 23.6536C161.438 23.7567 161.285 23.8387 161.109 23.9002L162.435 27.674ZM163.936 26.8838C164.416 26.5388 164.834 26.1266 165.189 25.6541L161.989 23.2541C161.875 23.4066 161.746 23.5315 161.601 23.6357L163.936 26.8838ZM165.17 25.6784C165.519 25.2286 165.8 24.7369 166.014 24.2094L162.307 22.7066C162.228 22.9017 162.128 23.0742 162.007 23.2298L165.17 25.6784ZM163.382 21.6155C162.953 21.7969 162.513 21.9786 162.063 22.1604L163.562 25.8689C164.03 25.6796 164.489 25.4902 164.938 25.3005L163.382 21.6155ZM162.049 22.1661C161.827 22.2576 161.632 22.293 161.45 22.293V26.293C162.186 26.293 162.899 26.1428 163.576 25.8632L162.049 22.1661ZM161.45 22.293C160.725 22.293 160.071 22.1659 159.472 21.9248L157.979 25.6358C159.079 26.0783 160.242 26.293 161.45 26.293V22.293ZM159.472 21.9248C158.858 21.6777 158.331 21.3352 157.877 20.8943L155.092 23.7659C155.926 24.575 156.894 25.1992 157.979 25.6358L159.472 21.9248ZM157.899 20.9159C157.465 20.4822 157.103 19.9421 156.824 19.2668L153.127 20.7938C153.59 21.9153 154.234 22.9084 155.07 23.7443L157.899 20.9159ZM156.834 19.2909C156.579 18.6503 156.434 17.8906 156.434 16.9834H152.434C152.434 18.3223 152.649 19.5938 153.117 20.7696L156.834 19.2909ZM156.434 16.9834V8.31152H152.434V16.9834H156.434ZM154.434 10.3115H158.418V6.31152H154.434V10.3115ZM156.418 8.31152V16.9834H160.418V8.31152H156.418ZM156.418 16.9834C156.418 17.7226 156.521 18.4559 156.778 19.1457L160.527 17.7508C160.471 17.6007 160.418 17.3575 160.418 16.9834H156.418ZM156.798 19.1986C157.049 19.817 157.401 20.3884 157.873 20.8775L160.75 18.0991C160.676 18.0217 160.588 17.8998 160.506 17.6979L156.798 19.1986ZM157.897 20.9025C158.371 21.3762 158.929 21.7369 159.556 21.9741L160.971 18.2329C160.876 18.1967 160.799 18.1472 160.726 18.0741L157.897 20.9025ZM159.572 21.9802C160.178 22.2034 160.809 22.3086 161.45 22.3086V18.3086C161.252 18.3086 161.091 18.2771 160.955 18.2268L159.572 21.9802ZM161.45 22.3086C162.175 22.3086 162.874 22.1416 163.521 21.8094L161.694 18.2511C161.618 18.2901 161.546 18.3086 161.45 18.3086V22.3086ZM163.539 21.8001C164.125 21.4915 164.643 21.0848 165.079 20.5856L162.069 17.9515C161.959 18.0773 161.832 18.1784 161.676 18.2604L163.539 21.8001ZM165.079 20.5856C165.504 20.1006 165.837 19.5544 166.076 18.9566L162.362 17.4711C162.288 17.6546 162.192 17.8115 162.069 17.9515L165.079 20.5856ZM166.082 18.941C166.326 18.3144 166.453 17.658 166.453 16.9834H162.453C162.453 17.1487 162.424 17.3126 162.356 17.4868L166.082 18.941ZM166.453 16.9834V8.31152H162.453V16.9834H166.453ZM164.453 10.3115H168.481V6.31152H164.453V10.3115ZM166.481 8.31152V22.0225H170.481V8.31152H166.481ZM166.482 22.0048C166.474 22.8529 166.311 23.6218 166.002 24.3312L169.671 25.9247C170.203 24.7004 170.469 23.399 170.481 22.0402L166.482 22.0048ZM166.002 24.3312C165.682 25.0693 165.25 25.6998 164.704 26.2384L167.513 29.0858C168.432 28.1791 169.152 27.1202 169.671 25.9247L166.002 24.3312ZM164.694 26.2479C164.155 26.7874 163.521 27.2185 162.777 27.5415L164.371 31.2104C165.561 30.6936 166.617 29.9822 167.523 29.0763L164.694 26.2479ZM162.777 27.5415C162.074 27.8471 161.311 28.0059 160.469 28.0059V32.0059C161.833 32.0059 163.141 31.7447 164.371 31.2104L162.777 27.5415ZM160.497 28.0061L158.447 27.9768L158.389 31.9764L160.44 32.0057L160.497 28.0061Z" fill="black"/>
</svg>
